<svg id="br" xmlns="http://www.w3.org/2000/svg" width="4000" height="4000" viewBox="0 0 4000 4000">
  <metadata><?xpacket begin="﻿" id="W5M0MpCehiHzreSzNTczkc9d"?>
<x:xmpmeta xmlns:x="adobe:ns:meta/" x:xmptk="Adobe XMP Core 5.6-c138 79.159824, 2016/09/14-01:09:01        ">
   <rdf:RDF xmlns:rdf="http://www.w3.org/1999/02/22-rdf-syntax-ns#">
      <rdf:Description rdf:about=""/>
   </rdf:RDF>
</x:xmpmeta>
                                                                                                    
                                                                                                    
                                                                                                    
                                                                                                    
                                                                                                    
                                                                                                    
                                                                                                    
                                                                                                    
                                                                                                    
                                                                                                    
                                                                                                    
                                                                                                    
                                                                                                    
                                                                                                    
                                                                                                    
                                                                                                    
                                                                                                    
                                                                                                    
                                                                                                    
                                                                                                    
                           
<?xpacket end="w"?></metadata>
<defs>
    <style>
      .cls-1, .cls-2 {
        fill: #313131;
      }

      .cls-1 {
        fill-rule: evenodd;
      }
    </style>
  </defs>
  <g id="title">
    <path class="cls-1" d="M2827.13,1940.97a21.81,21.81,0,0,0-14.02-20.4l-162.55-61.81c-4.44-20.23-9.82-40.39-16.14-60.16l109.83-134.81a21.645,21.645,0,0,0,1.98-24.67l-59.72-103.45a21.783,21.783,0,0,0-22.35-10.62l-171.83,27.78c-13.69-14.98-28.13-29.43-43.1-43.13-0.29-.24-0.53-0.48-0.79-0.72l27.74-171.91a21.7,21.7,0,0,0-10.62-22.34L2362.11,1255a21.783,21.783,0,0,0-24.67,1.98l-134.88,109.91c-19.68-6.27-39.8-11.65-60.03-16.06l-61.85-162.65a21.831,21.831,0,0,0-20.38-14.06H1940.83a21.837,21.837,0,0,0-20.4,14.06l-61.81,162.58c-20.25,4.4-40.39,9.78-60.12,16.11l-134.84-109.89A21.734,21.734,0,0,0,1639,1255l-103.45,59.73a21.761,21.761,0,0,0-10.62,22.34L1552.71,1509c-7.79,7.08-15.29,14.26-22.45,21.38-7.12,7.13-14.28,14.64-21.38,22.43l-171.92-27.78a21.752,21.752,0,0,0-22.34,10.64l-59.74,103.45a21.783,21.783,0,0,0,1.98,24.67l109.89,134.83c-6.3,19.75-11.69,39.89-16.11,60.14l-162.58,61.81a21.788,21.788,0,0,0-14.05,20.4v119.45a21.821,21.821,0,0,0,14.05,20.38l162.58,61.84c4.42,20.24,9.81,40.36,16.11,60.11l-109.87,134.8a21.818,21.818,0,0,0-1.98,24.71l59.74,103.42a21.7,21.7,0,0,0,22.34,10.65l171.92-27.77c7.08,7.8,14.26,15.31,21.38,22.39,7.14,7.16,14.64,14.34,22.45,21.42l-27.78,171.9a21.869,21.869,0,0,0,10.64,22.4l103.45,59.72a21.8,21.8,0,0,0,24.67-1.98l134.83-109.88c19.73,6.33,39.87,11.71,60.12,16.11l61.81,162.58a21.822,21.822,0,0,0,20.4,14.06h119.47a21.885,21.885,0,0,0,20.38-14.06l61.81-162.58c20.27-4.4,40.43-9.78,60.14-16.11l134.8,109.88a21.745,21.745,0,0,0,24.68,1.98l103.45-59.72a21.808,21.808,0,0,0,10.62-22.4l-27.74-171.9c7.76-7.08,15.27-14.26,22.39-21.38,7.16-7.12,14.3-14.63,21.42-22.43l171.9,27.77a21.748,21.748,0,0,0,22.36-10.65l59.72-103.42a21.8,21.8,0,0,0-1.98-24.71l-109.84-134.8c6.29-19.71,11.71-39.84,16.11-60.11l162.58-61.84a21.789,21.789,0,0,0,14.02-20.38V1940.97h-0.03Zm-43.56,104.43-159.69,60.72a21.713,21.713,0,0,0-13.65,16.11,610.441,610.441,0,0,1-20.92,78.02,21.868,21.868,0,0,0,3.79,20.81L2701,2353.44l-44.69,77.45-168.83-27.31a21.913,21.913,0,0,0-19.86,7.12c-9.1,10.37-18.39,20.23-27.56,29.48-9.21,9.17-19.07,18.42-29.44,27.52a21.883,21.883,0,0,0-7.12,19.86l27.28,168.83-77.42,44.72-132.42-107.93a21.657,21.657,0,0,0-20.77-3.75,619.008,619.008,0,0,1-78.02,20.91,21.721,21.721,0,0,0-16.15,13.62l-60.72,159.69h-89.36l-60.73-159.69a21.737,21.737,0,0,0-16.15-13.62,618.406,618.406,0,0,1-78.01-20.91,21.709,21.709,0,0,0-20.79,3.75l-132.4,107.93-77.41-44.72,27.28-168.83a21.824,21.824,0,0,0-7.12-19.86c-10.34-9.06-20.25-18.35-29.45-27.56-9.17-9.17-18.43-19.07-27.57-29.44a21.944,21.944,0,0,0-19.83-7.12l-168.85,27.31-44.7-77.45,107.91-132.38a21.8,21.8,0,0,0,3.74-20.81,616.342,616.342,0,0,1-20.86-77.99,21.792,21.792,0,0,0-13.65-16.14l-159.7-60.72V1956l159.7-60.72a21.877,21.877,0,0,0,13.65-16.14,619.528,619.528,0,0,1,20.86-78.03,21.757,21.757,0,0,0-3.74-20.79l-107.93-132.41,44.7-77.42,168.85,27.3a21.85,21.85,0,0,0,19.83-7.14c9.1-10.32,18.38-20.23,27.58-29.44s19.12-18.48,29.44-27.56a21.8,21.8,0,0,0,7.12-19.83l-27.28-168.85,77.42-44.7,132.41,107.91a21.748,21.748,0,0,0,20.79,3.74,614.84,614.84,0,0,1,78.01-20.86,21.761,21.761,0,0,0,16.15-13.65l60.71-159.7h89.38l60.76,159.77a21.846,21.846,0,0,0,16.14,13.63,622.665,622.665,0,0,1,77.96,20.85,21.819,21.819,0,0,0,20.77-3.76l132.45-107.97,77.42,44.7-27.28,168.84a21.837,21.837,0,0,0,7.12,19.84c3.44,3.04,6.47,5.74,9.21,8.25a641.655,641.655,0,0,1,47.86,48.75,21.876,21.876,0,0,0,19.86,7.12l168.76-27.28,44.69,77.42-107.9,132.4a21.916,21.916,0,0,0-3.75,20.79,616.776,616.776,0,0,1,20.91,78.02,21.767,21.767,0,0,0,13.62,16.15l159.69,60.72v89.45Zm-193.08-162.36a587.967,587.967,0,0,0-20.19-75.45l-7.47-21.98,113.81-139.63-30.81-53.39-177.97,28.76-15.28-17.39a615.4,615.4,0,0,0-46.31-47.19c-2.7-2.44-5.6-5.05-8.91-7.97l-17.44-15.32,28.79-178-53.39-30.83L2215.63,1438.5l-21.93-7.44a607.8,607.8,0,0,0-75.42-20.18l-22.78-4.51-64.09-168.5h-61.64l-64.04,168.41-22.77,4.51a593.515,593.515,0,0,0-75.46,20.22l-21.97,7.45-139.66-113.83-53.38,30.83,28.78,178-17.39,15.3c-10.04,8.82-19.64,17.81-28.51,26.69-8.9,8.89-17.89,18.49-26.67,28.5l-15.32,17.38-178-28.76-30.83,53.39,113.83,139.65-7.45,21.98a596.27,596.27,0,0,0-20.22,75.45l-4.51,22.79-168.43,64.02v61.64l168.43,64.09,4.51,22.74a597.457,597.457,0,0,0,20.22,75.5l7.45,21.97L1324.57,2355.4l30.83,53.39,178-28.75,15.32,17.4c8.78,10,17.77,19.58,26.66,28.46s18.48,17.85,28.52,26.69l17.39,15.31-28.78,178.01,53.39,30.81,139.65-113.78,21.97,7.44a598.2,598.2,0,0,0,75.46,20.19l22.77,4.52,64.04,168.42h61.64l64.05-168.42,22.78-4.52a594.712,594.712,0,0,0,75.46-20.19l21.97-7.44,139.65,113.78,53.39-30.81-28.79-178.01,17.4-15.31c10.08-8.86,19.68-17.85,28.5-26.69,8.88-8.86,17.88-18.46,26.69-28.46l15.31-17.4,178.01,28.75,30.81-53.39-113.83-139.61,7.47-21.97a598.791,598.791,0,0,0,20.19-75.5l4.52-22.78,168.39-64.05v-61.64l-168.39-64.02ZM2754.7,2025.5l-167.31,63.6-5.46,27.52a589.532,589.532,0,0,1-19.9,74.37l-9.02,26.56,113.09,138.7-24.82,42.95-176.86-28.58-18.46,20.99c-8.71,9.9-17.55,19.37-26.3,28.13-8.75,8.71-18.2,17.55-28.11,26.3l-21.03,18.5,28.58,176.82-42.95,24.82L2219.3,2554.64l-1.89-1.55-26.52,9.02a587.061,587.061,0,0,1-74.37,19.9l-27.52,5.46-63.6,167.35h-49.64l-63.61-167.35-27.52-5.46a590.44,590.44,0,0,1-74.37-19.9l-26.56-9.02L1645,2666.18l-42.98-24.82,28.57-176.82-21.01-18.5c-9.89-8.71-19.34-17.59-28.07-26.3-8.79-8.78-17.63-18.27-26.32-28.11l-18.48-21.03-176.82,28.58-24.8-42.95,113.05-138.7-9-26.56a588.413,588.413,0,0,1-19.9-74.37l-5.46-27.51-167.31-63.61v-49.62l167.31-63.62,5.46-27.52a589.623,589.623,0,0,1,19.9-74.36l9-26.54L1335.09,1645.1l24.8-42.99,176.82,28.58,18.48-21.01c8.69-9.84,17.55-19.29,26.32-28.08,8.73-8.74,18.18-17.6,28.07-26.31l21.01-18.48-28.57-176.84,42.98-24.8,138.7,113.05,26.56-9a588.413,588.413,0,0,1,74.37-19.9l27.52-5.46,63.61-167.31h49.64l63.64,167.37,27.48,5.45a595.365,595.365,0,0,1,74.35,19.89l26.52,8.98,138.78-113.09,42.95,24.8-28.58,176.84,21.03,18.48c3.29,2.88,6.18,5.45,8.78,7.86a604.191,604.191,0,0,1,45.7,46.53l18.46,21.01,176.79-28.57,24.82,42.98-113.1,138.7,9.03,26.54a586.236,586.236,0,0,1,19.94,74.37l5.45,27.54,167.28,63.62v49.65h-0.02Zm-421.66-388.65a493.168,493.168,0,1,0-39.29,760.11,485.27,485.27,0,0,0,55.3-47.75,501.82,501.82,0,0,0,48.05-55.67A492.518,492.518,0,0,0,2333.04,1636.85Zm97.63,545.45a467.843,467.843,0,0,1-54.58,95.65,473.753,473.753,0,0,1-97.89,97.96A465.566,465.566,0,1,1,2430.67,2182.3Zm-143.8-494.96a422.954,422.954,0,1,0,101,139.33A423.161,423.161,0,0,0,2286.87,1687.34Zm64.73,461.52a382.758,382.758,0,1,1,29.83-148.18A379.892,379.892,0,0,1,2351.6,2148.86Z"/>
    <path class="cls-1" d="M1337.69,1589.72s-175.43-13.57-341.353-14.94c-214.109-1.77-431.128,8.56-431.128,8.56L621.2,1470.31s379.883-58.58,498.983-93.6c8.21-2.41,15.95-4.54,23.27-6.42,2.63,0,5.26-.01,7.84-0.02q4.815-.03,9.84.16c0.09-1.5.11-2.95,0.07-4.36,1.34-.3,2.68-0.58,3.99-0.86,0.03,1.69.04,3.4,0.07,5.09,3.27,0,6.5-.01,9.71-0.04s6.48,0.04,9.83.16c0.09-1.5.11-2.96,0.07-4.38s-0.02-2.88.06-4.39c-0.18.01-.37,0.01-0.55,0.02,71.64-11.26,91.96,9.53,147.3,14.51C1523.7,1393.46,1337.69,1589.72,1337.69,1589.72Z"/>
  </g>
  <g id="minecraft">
    <path class="cls-1" d="M773.224,1716.33l10.568,19.3,99.732-66.25,7,12.12,32.888-23.04,17.119,27.65,34.138-20.87,17.887,32.97,39.9-21.89-1.77-7.06,37.78-23.56,21.39,39.04,36.92-23.06,38.47-23.37,21.45,40.15,8.44-12.38,41.2-22.64,20.41,41.33,30.52-25.13,91.12-120.17s-380.1-63.75-613.454-51.32C607,1496.57,565.6,1582.78,565.6,1582.78Z"/>
  </g>
  <g id="macgyver">
    <path class="cls-1" d="M842.354,2542.09s-13.187-19.94-3.828-41.17,18.464-22.7,19.737-22.77,5.348,0.57,5.559,4.39-7.961,9.81-7.961,9.81-11.064,8.75-13.266,21.27S842.354,2542.09,842.354,2542.09Z"/>
    <path class="cls-1" d="M955.551,2419.71s-4.614-1.01-22.065,2.86-26.87,23.87-26.87,23.87-2.457,4.24-6.885,2.17-1.993-8.63-1.993-8.63a41.248,41.248,0,0,1,24.548-21.62A49.341,49.341,0,0,1,955.551,2419.71Z"/>
  </g>
  <path id="Shape_19_copy" data-name="Shape 19 copy" class="cls-1" d="M1487.94,2658.01v43.52a3.97,3.97,0,0,0-2.15,3.84,30.9,30.9,0,0,1-2.39,12.66,7.017,7.017,0,0,0-.58,2.5c0.02,0.48.02,0.96,0.01,1.44a19.516,19.516,0,0,1-.43,4.69,25.557,25.557,0,0,0-.44,5.52,7.215,7.215,0,0,1,0,.93,2.072,2.072,0,0,1-.64,2.08c-0.94-.45-0.77-1.93-2.11-2.11a2.677,2.677,0,0,0-1.97,2.08c-0.69,1.87-1.4,3.73-2.09,5.59a1.461,1.461,0,0,1-.96,1.24,0.559,0.559,0,0,1-.58-0.55c0.03-.24.05-0.49,0.07-0.74a0.346,0.346,0,0,1-.07-0.26c0.22-1.72-.02-3.56,1.33-5.01,0.85-.91.75-2.16,0.75-3.25a14.407,14.407,0,0,1,1.82-6.03c0.13-.27.27-0.53,0.37-0.8a1.577,1.577,0,0,0-.11-0.23c-1.23.22-.81,2.29-2.44,2.05a1.891,1.891,0,0,1-.25-1.54,2.7,2.7,0,0,1,.29-1.81,14.163,14.163,0,0,0,1.22-5.77,17.911,17.911,0,0,1,1.47-5.53,7.708,7.708,0,0,0,.45-2.42c-0.04-1.11-.17-2.21-0.13-3.32a0.7,0.7,0,0,0-.59-0.58,0.862,0.862,0,0,0-.87.97,3.868,3.868,0,0,1-1.33,2.79,4.452,4.452,0,0,0-1.36,1.88c-0.59,2.5-2.7,3.73-4.21,5.46a1.051,1.051,0,0,1-1.47.41,1.168,1.168,0,0,1-.45-1.49,1.336,1.336,0,0,1,.01-1.02,32.6,32.6,0,0,0,.72-3.75c0.01-.05.01-0.1,0.02-0.15a1.771,1.771,0,0,0-.47-0.84,5.254,5.254,0,0,1-1.53-4.34,11.8,11.8,0,0,1,.47-3.66,23.176,23.176,0,0,0,.81-3.59,5.1,5.1,0,0,0-.17-1,0.78,0.78,0,0,1,.08-0.61c-0.03-.13-0.04-0.26-0.08-0.39a0.715,0.715,0,0,1,.45-0.92c0.94,0.3.59,1.72,1.72,2.05a1.118,1.118,0,0,0,.67-0.75l-0.03-.18a4.772,4.772,0,0,1-.08-1.45,10.109,10.109,0,0,1,.32-2.88,13.282,13.282,0,0,0,.24-2.06,12.631,12.631,0,0,0-1.63-5.79,6.4,6.4,0,0,1-.89-3.8,6.331,6.331,0,0,1,.66-3.27,4.23,4.23,0,0,0,.37-1.18,2.85,2.85,0,0,0-.03-0.29,18.554,18.554,0,0,1-.15-2.12,0.487,0.487,0,0,0,.04-0.11c-0.01-.29-0.02-0.59-0.04-0.89,0.61-1.44.46-3.13,1.37-4.45a10.933,10.933,0,0,0,1.29-3.35c0.62-2.19,1.21-4.44,2.98-6.2a4.223,4.223,0,0,1,.34-2.22h12.38v1Zm-8.96,70.92c0.05,0.14.1,0.28,0.17,0.46,0.1-.22.18-0.38,0.25-0.53-0.05-.09-0.1-0.19-0.16-0.32C1479.13,2728.7,1479.05,2728.83,1478.98,2728.93Zm3.56-59.41a18.484,18.484,0,0,0-.59,3.84,10.877,10.877,0,0,1,.03,1.51,3.915,3.915,0,0,1-.34,2.22,17.535,17.535,0,0,0-1.61,5.7,92.281,92.281,0,0,0-1.74,14.44,0.839,0.839,0,0,0,.94.89,0.884,0.884,0,0,0,.89-0.66,17.832,17.832,0,0,0-.73-2.13,2.8,2.8,0,0,1,.18-0.51c-0.06-.16-0.12-0.32-0.18-0.49a3.206,3.206,0,0,1,1.53-1.99,3.019,3.019,0,0,0,1.37-1.28c-0.03-.19-0.07-0.4-0.13-0.65-0.18-.83-0.44-1.65-0.65-2.47a1.476,1.476,0,0,1-.03-1.11,1.017,1.017,0,0,1,.21-1.23c0.77-.46,1.27.71,2,0.27a1.511,1.511,0,0,0,.29-1.2c0.06-2.41.07-4.82,0.25-7.23,0.02-.25.04-0.5,0.05-0.74a3.387,3.387,0,0,0-.59-1.73,2.3,2.3,0,0,1-.28-1.69,3.734,3.734,0,0,1,.05-1.37c0.15-.81.28-1.63,0.36-2.46a0.928,0.928,0,0,0-.57-0.68A0.845,0.845,0,0,0,1482.54,2669.52Zm-13.96,18.68c0.46,0.8.16,1.18-1.11,1.38v-1h0c0-.7.01-1.4,0.01-2.09a1.554,1.554,0,0,1,1.06.64C1468.85,2687.63,1468.87,2687.97,1468.58,2688.2Zm-2.2,8.04c0.27,0.46.08,1-.53,2.03-0.16-1.03-.29-1.89-0.44-2.83,0.07,0.04.12,0.08,0.18,0.11-0.06-.37-0.12-0.73-0.18-1.11C1466.4,2695.03,1466.69,2695.41,1466.38,2696.24Zm-0.81,7.58a4.584,4.584,0,0,1-.93,3.21,6.312,6.312,0,0,1-.74-3.5,3.518,3.518,0,0,1,.62-2.57A2.951,2.951,0,0,1,1465.57,2703.82Zm-194.11,181.97a4.776,4.776,0,0,1,.01.85,0.991,0.991,0,0,0,.09.33c3.29,2.61,3.6,6.57,3.56,10.44,0.01,0.36,0,.73,0,1.1a37.518,37.518,0,0,1,.27,3.82,7.662,7.662,0,0,1-.03,1.36c-0.06.36-.1,0.72-0.13,1.08a3.621,3.621,0,0,0,.06.46,11.163,11.163,0,0,1,.25,2.98,18.724,18.724,0,0,1-.29,3.72,52.069,52.069,0,0,0-.94,6.92c0,0.17,0,.35.01,0.52a3.269,3.269,0,0,1-.01.44c0,0.19,0,.37.01,0.56a3.293,3.293,0,0,1-.28,1.45c-0.74,3.58-2.78,7.7-3.92,11.27a1.49,1.49,0,0,1-1.03.15c0.5,1.23,1.36,3.04,1.04,3.8a1.745,1.745,0,0,1-.01,1.05c-1.3,2.54-2.78,4.39-3.42,7.16a49.563,49.563,0,0,1-2.16,6.86c-0.88,2.28-2.45,4.27-2.82,6.76a19.847,19.847,0,0,1-1.74,3.52c-1.77,2.38-2.67,2.68-4.86,4.7-0.03-.56-0.66-0.56-0.96-0.95-0.01.04-.02,0.1-0.03,0.14a8.769,8.769,0,0,1,.19,2.32,2.076,2.076,0,0,1-.2,1.49,27.114,27.114,0,0,0-3,4,21.809,21.809,0,0,1-3,3c-2.72,1.88-4.83,1.83-8,3-0.61.23-.67-0.69-1.31-0.75a8.191,8.191,0,0,1-4.3-.82c0.99,0.01,1.98.03,2.97,0.02a7.92,7.92,0,0,0,1.49-.15,0.749,0.749,0,0,0-.16-0.05,8.191,8.191,0,0,1-4.3-.82c0.99,0.01,1.98.03,2.97,0.02a5.629,5.629,0,0,0,4.8-2.26,5.822,5.822,0,0,1,2.7-1.99,2.25,2.25,0,0,0,.97-0.39c1.38-1.75,3.23-3.14,4.17-5.19a13.881,13.881,0,0,1,.95-2.03,5.192,5.192,0,0,1-.65-2.27,3.1,3.1,0,0,1,.05-0.45,3.308,3.308,0,0,1-.05-0.55c0.02-1.3.87-2.3,1.96-1.84,2.07,0.88,3.5-.13,4.99-1.04a0.989,0.989,0,0,0-.49-0.02,7.515,7.515,0,0,1-4.4-.68c-1-.14-1.7-0.94-2.64-1.23a8.5,8.5,0,0,1-.61-2.02c-0.06-1.81-1.56-2.81-2.25-4.26-0.26-.55-1.08-0.31-1.6-0.96a3.758,3.758,0,0,0,.16-0.84c-0.05-.05-0.11-0.1-0.16-0.16a4.446,4.446,0,0,0,.14-0.69,8.475,8.475,0,0,0-2.02-3.9c-0.14-.14-0.28-0.28-0.43-0.42h0c0.04-.32-0.02-0.66.02-0.98l-0.02-.02h0a2.225,2.225,0,0,1,.3-1.57c0.44-.29.82,0.4,1.22-0.02v-0.06c-0.08-.82-0.49-1.37-2.05-3.44-0.35.04-.77,0.09-1.18,0.14-0.73-1.4-1.97-1.36-3.16-1.07-0.43-.4-0.03-0.69.01-1h-0.01a0.5,0.5,0,0,1-.17-0.28,2.341,2.341,0,0,1-1.4-.39c-0.01-.76-0.47-1.61-0.28-2.48a2.09,2.09,0,0,1,.35-1.75,48.174,48.174,0,0,1,5.07.44,6.72,6.72,0,0,1,5.1,4.84c0.46,1.63,2.54,2.65,4.29,2.4a12.182,12.182,0,0,0-2.59-2.48,8.169,8.169,0,0,1-2.9-3.6c-0.55-1.46-1.84-2.35-3.14-3.73a8.51,8.51,0,0,1,1.02.01c-0.33-.31-0.67-0.64-1.02-1.01a4.281,4.281,0,0,1,2.96.7,6.6,6.6,0,0,0,1.93,1.31c2.69,0.69,3.43,3.47,5.42,4.89a0.948,0.948,0,0,1,.26.78,4.706,4.706,0,0,0-.08.5,0.923,0.923,0,0,1,.08.5,2.336,2.336,0,0,0-.04.26,20.5,20.5,0,0,0,.73,2.56c-0.09.11-.15,0.2-0.22,0.3,0.08,0.23.16,0.47,0.22,0.7a6.021,6.021,0,0,0-1.18,1.93,0.34,0.34,0,0,1,.01.1,13.386,13.386,0,0,1,3.02-1.24,6.045,6.045,0,0,0,.17-0.91,2.907,2.907,0,0,0-.91-1.75,2.471,2.471,0,0,1-.46-2.03,4.255,4.255,0,0,1-.01-0.62,1.557,1.557,0,0,0-.56-1.1,0.524,0.524,0,0,1-.1-0.18c0.18-.07.36-0.14,0.55-0.2a1.541,1.541,0,0,0-.45-0.62,0.524,0.524,0,0,1-.1-0.18c0.41-.16.83-0.31,1.25-0.46,0.41,0.2.72,0.7,1.29,0.42a0.355,0.355,0,0,0,.04-0.09v-0.13c0.03-.03.05-0.06,0.08-0.09a6.988,6.988,0,0,0-.08-0.91c0.85-.93,1.78-1.38,2.93-0.48a0.778,0.778,0,0,0,1.1-.29,1.037,1.037,0,0,1,.74-0.69,3.923,3.923,0,0,0,3.03-1.28,10.308,10.308,0,0,1-3.52-2.1,1.073,1.073,0,0,1,.34-0.73c-0.12-.1-0.23-0.18-0.34-0.27,0.09-.88.84-0.99,1.23-1.45a4.46,4.46,0,0,0,1.28-1.28c0.13-.01.26-0.03,0.39-0.05a5.026,5.026,0,0,0,2.13-.41,1.57,1.57,0,0,0,.87-1.69h0.01a1.533,1.533,0,0,0,.41-0.51,6.276,6.276,0,0,0-.3-0.65,5.178,5.178,0,0,0-1.82.44h0c-0.14-.14-0.29-0.28-0.43-0.42h0a6.152,6.152,0,0,1,.08-0.93,0.5,0.5,0,0,1-.08-0.07h0a2.8,2.8,0,0,1,.33-1.59c2.08,0.41,2.64-1.49,3.48-2.78,0.63,0.17.53,0.45,0.46,0.72a3.691,3.691,0,0,0-.08.46,0.324,0.324,0,0,1,.13.23,0.911,0.911,0,0,0,.82-0.01c0.15-.28.31-0.57,0.46-0.86l0.6-.57a12.342,12.342,0,0,1-.44-3.92,19.347,19.347,0,0,1,.05-2.15c0.01-.05,0-0.09.01-0.14a6.207,6.207,0,0,0-2.43-4.64,8.347,8.347,0,0,0-4.51-2.17c-1.41-.14-1.86-0.69-1.62-1.93a3.5,3.5,0,0,1,.25-1.95c1.19-.54,1.9.73,2.93,0.81h-0.01c0.14,0.15.29,0.29,0.43,0.43v-0.01a0.938,0.938,0,0,0,1.27.02c0.81-1.56,2.3-1.87,3.72-1.97a2.089,2.089,0,0,0,.51-0.89,0.037,0.037,0,0,1-.01-0.03,8.932,8.932,0,0,1-.36-2.97,5.155,5.155,0,0,1,.23-2.12,0.913,0.913,0,0,0-.13-0.22c-1.5-1.83-2.07-4.12-3.09-6.18,0.16,0.02.32,0.05,0.49,0.07-0.16-.36-0.32-0.72-0.49-1.07,0.25,0.04.51,0.07,0.76,0.11l1.75,1.63c0.07,0.23.14,0.46,0.2,0.69,0.06-.13.16-0.29,0.27-0.48a3.26,3.26,0,0,0-.33-0.31c-0.05-.24,1.11-1.76,1.06-2C1271.56,2884.31,1271.5,2885.07,1271.46,2885.79Zm-14.1,74.75h0a6.244,6.244,0,0,0,.45-0.73h0A6.244,6.244,0,0,1,1257.36,2960.54Zm5.84-15.8a0.405,0.405,0,0,0-.05.09,0.405,0.405,0,0,1,.05-0.09h0Zm-1.39,5.85c1.29-.9.99-2.54,1.72-3.73a4.114,4.114,0,0,1-.36-2.04h-0.01a0.01,0.01,0,0,1-.01.01,2.989,2.989,0,0,0-.47,1.77,3.981,3.981,0,0,1-.73,2.41,2.248,2.248,0,0,0-.61,1.26c0.01,0.1.02,0.2,0.03,0.31a0.236,0.236,0,0,0-.05.05h0a0.236,0.236,0,0,1,.05-0.05C1261.52,2950.58,1261.66,2950.59,1261.81,2950.59Zm-4.92-5.98a2.2,2.2,0,0,1-.81,2.02,10.752,10.752,0,0,1-.37,3.31,4.224,4.224,0,0,0-.25.76,2.054,2.054,0,0,0,.93,1.23,1.543,1.543,0,0,0,.74-1.05,4.25,4.25,0,0,1-.03-1.28,2.127,2.127,0,0,1,.26-1.62c1.22,0.74.19,2.11,1.14,3.03,1.89-2.08,2.15-4.61,2.57-7.17-1.22-.02-1.83-1.07-2.59-1.85A2.441,2.441,0,0,0,1256.89,2944.61Zm9.22-9.31a0.435,0.435,0,0,1,.04.07,1.548,1.548,0,0,0-.01.22,1.054,1.054,0,0,1,.07-0.11,0.672,0.672,0,0,0-.06-0.12v0.01h0a0.435,0.435,0,0,0-.04-0.07h0Zm-0.27-1.49h0c-0.05-.1-0.1-0.19-0.15-0.28h0C1265.74,2933.62,1265.79,2933.71,1265.84,2933.81Zm-0.29-.55c0.04,0.09.09,0.18,0.14,0.27a1.56,1.56,0,0,1,.06-0.44A0.852,0.852,0,0,0,1265.55,2933.26Zm6.55-30.54c0.04,0.05.08,0.11,0.12,0.16h0c-0.04-.05-0.08-0.11-0.12-0.16h0Zm-0.19-.89c0.05,0.17.11,0.35,0.18,0.57a5,5,0,0,1,.25-0.86A1.444,1.444,0,0,0,1271.91,2901.83Zm-0.74-12.63h0l0.04-.04a3.365,3.365,0,0,0-.98-1.9A5.726,5.726,0,0,0,1271.17,2889.2Zm-28.08,70.9a0.661,0.661,0,0,1,.27-0.25,0.681,0.681,0,0,1,.26.24,0.27,0.27,0,0,1-.37.31A0.321,0.321,0,0,1,1243.09,2960.1Zm0,1a0.661,0.661,0,0,1,.27-0.25,0.681,0.681,0,0,1,.26.24,0.27,0.27,0,0,1-.37.31A0.321,0.321,0,0,1,1243.09,2961.1Zm-10.07-6.61a3.878,3.878,0,0,1,.69.5c-0.59.59-1.35,0.66-1.71,1.39,0.27,1.03.96,2.05,1.37,3.13-0.12.09-.22,0.16-0.33,0.24a7.27,7.27,0,0,1,.33.76c-1.78,1.37-2.59,1.28-3.47-.48a6.965,6.965,0,0,0-1.46-1.56c0.05-.29.08-0.59,0.11-0.89a1.141,1.141,0,0,1-.11-0.11c0.26-1.58.02-3.49,1.68-4.31a3.247,3.247,0,0,1,3.59.83A3.435,3.435,0,0,1,1233.02,2954.49Zm254.96,23.82v13.38c-0.97.22-1.22,1.05-1.58,1.81-0.41.85-.52,1.91-1.48,2.45-1.05-.21-1.14-1.01-1.17-1.77-0.05-1.4-.03-2.8-0.03-4.2h0v-1a3.266,3.266,0,0,0,.32-1.63,18.642,18.642,0,0,1,2.83-8.09A2.336,2.336,0,0,1,1487.98,2978.31Zm-1.73,45.84c0.13,2.69.16,5.39,0.49,8.05a75.613,75.613,0,0,1,.42,7.66,20.452,20.452,0,0,0,.82,5.87v1q0.015,39.39.01,78.79v1q0,9.105.01,18.2v1a1.879,1.879,0,0,0-1.58,1.55c-0.15,1.34-.41,2.7-0.47,4.04q0.015,0.33.06,0.66a6.266,6.266,0,0,1,.03,1.43c0.19,2.52-1.12,4.49-2.13,6.5a7.524,7.524,0,0,0-1.05,3.31c0,0.61-.05,1.22-0.07,1.83a5.046,5.046,0,0,0,1.05,3.1,0.531,0.531,0,0,1,.12.4,3.246,3.246,0,0,0,1.17,2.89,2.62,2.62,0,0,1-.06.94l0.06,0.06a2.662,2.662,0,0,1-.51,1.93,38.813,38.813,0,0,1-2.42,3.23,3.317,3.317,0,0,0-.78,1.31,2.959,2.959,0,0,0,.44.92,4.374,4.374,0,0,1-.45,4.82,5.053,5.053,0,0,0-1.44,3.29,28.856,28.856,0,0,1,.14,3.08,9.908,9.908,0,0,1,0,1.09,0.577,0.577,0,0,0,.58.35,1.63,1.63,0,0,0,.64-1.21,6.252,6.252,0,0,1,0-1.06c-0.06-.97-0.1-1.95,1.02-2.55,0.76,1.02.63,2.29,1.41,3.17s-0.11,2.44,1.19,3.24a1.923,1.923,0,0,0,.87-1.28,1.572,1.572,0,0,0-.04-0.23,9.444,9.444,0,0,1-.22-2.56,7.016,7.016,0,0,1,1.05-4.25c-0.2-.46-0.4-0.9-0.6-1.36a5.238,5.238,0,0,0,.23-0.48c-0.08-.17-0.15-0.34-0.23-0.52a5.9,5.9,0,0,0,.73-3.04,2.5,2.5,0,0,1,1.26-2.31v26.17q0,8.46.01,16.92v51.35a3.992,3.992,0,0,0-1.23,2.4c0.02,0.15.04,0.29,0.07,0.44a2.742,2.742,0,0,1,.01,1.14,2.18,2.18,0,0,1-.54,2,3.24,3.24,0,0,1-.02-0.44,3.24,3.24,0,0,0,.02.44,5.4,5.4,0,0,1-.86,2.14c-1.11,2.08-3.25,3.63-3.19,6.31a0.871,0.871,0,0,1-.3.54,3.9,3.9,0,0,0-1.33,2.54,7.066,7.066,0,0,0,.61,2.16,5,5,0,0,1,.46,2.68,4.483,4.483,0,0,1-.95,3.26h-20.48c-0.63-1.34-.28-2.82-0.62-4.2a3.015,3.015,0,0,1-.06-1.29,2.143,2.143,0,0,1,1.13-2.44,2.176,2.176,0,0,0,1.2-1.89c0.03-.67.11-1.35,0.14-2.02a4.184,4.184,0,0,0-1.33-3,2.831,2.831,0,0,1-.4-0.97c-0.77-1.89-1.35-3.91-3.74-4.45a3.132,3.132,0,0,1-1-.78,3.058,3.058,0,0,0-4.94,1.41c-0.67,1.72-.92,3.57-1.69,5.27-1.49,3.33-1.89,7.02-3.29,10.41a6.021,6.021,0,0,1,1.8,2.95h-0.34a4.065,4.065,0,0,1,.34,1h-0.85c-0.28-.43-0.45-1.06-1.13-0.96a0.927,0.927,0,0,0-.58.96h-2.56a7.926,7.926,0,0,0,.59-1h-0.59a8.717,8.717,0,0,0,1.53-4.54,12.433,12.433,0,0,0-.34-2.29,3.827,3.827,0,0,1-.08-1.43,2.666,2.666,0,0,1,1.34-2.9,1.248,1.248,0,0,0,.81-1.15,8.316,8.316,0,0,1,.45-2.93,1.079,1.079,0,0,0-.54-0.51c-1.6.74-1.05,2.58-1.87,3.88-1.47.46-1.97,1.75-2.1,3.23a31.578,31.578,0,0,1-.6,3.34,30.873,30.873,0,0,0-.74,5.06,1.927,1.927,0,0,1,.01.24h-0.01c-0.01.33-.01,0.67,0.01,1h-30.29a12.887,12.887,0,0,1-.19-2.84c0-.39,0-0.77.01-1.16-0.01-.35-0.02-0.69-0.06-1.04a1.9,1.9,0,0,1,.03-0.59c-0.01-.14-0.01-0.28-0.03-0.41a0.96,0.96,0,0,1,.94-1.27c0.86,0.43.28,1.76,1.35,2.01a6.7,6.7,0,0,0,.41-1.22,3.213,3.213,0,0,0-1.06-1.49c-1.38-1.29-2.64-2.61-2.41-4.66a3.7,3.7,0,0,1-.02-0.82c-0.08-.19-0.19-0.39-0.26-0.58h0a6.285,6.285,0,0,0,.17-0.62,4.075,4.075,0,0,1-.17-0.38h0c0.25-.72.23-1.57,0.98-2.07,0.64-.06,1.05.82,1.84,0.41a1.332,1.332,0,0,0,.48-1.25,79.128,79.128,0,0,1,.48-8.7,1.514,1.514,0,0,0,.02-0.3,3.44,3.44,0,0,0-.52-1.58,2.315,2.315,0,0,1-.3-1.78,2.353,2.353,0,0,1,.14-1.47,10.712,10.712,0,0,0,.8-3.29,1.646,1.646,0,0,1,1.09-1.74c0.63,0.25.4,1.04,1.02,1.14a5.381,5.381,0,0,0,.7-1.62,3.886,3.886,0,0,0-1.89-2c-0.76-.03-0.98,1.1-1.84.86-1.13-1.33-1.86-5.05-1.77-8.58a19.235,19.235,0,0,1,.05-2.15,27.832,27.832,0,0,0-.17-3.28,4.619,4.619,0,0,1-.03-1.23,2.83,2.83,0,0,1,1.24-2.94c0.72,1.06.3,2.6,1.61,3.13a1.236,1.236,0,0,0,.94-0.86,7.153,7.153,0,0,0,.61-2.58c-0.02-.26-0.03-0.52-0.07-0.79-0.42-2.87-.82-5.74-1.09-8.62a7.164,7.164,0,0,0-1.03-3.87,3.383,3.383,0,0,0,.23-0.63,2.846,2.846,0,0,0-.23-0.37c0.7-1.42.25-3.24,1.74-4.52a4.437,4.437,0,0,1,1.25,3.59,4.923,4.923,0,0,1-.02,1.21c-0.01.06-.01,0.11-0.02,0.16a3.613,3.613,0,0,0,1.88,2.59c1.42,0.87,2.71.3,2.9-1.37-0.02-.37-0.07-0.75-0.1-1.12a1.748,1.748,0,0,1,.03-0.76l-0.03-.24a0.869,0.869,0,0,1,.38-1.09,0.879,0.879,0,0,1,.98.9c0.24,1.49,1.08,2.77,1.51,4.2a2.21,2.21,0,0,0,1.78,1.92c0.95-.85.95-2.01,1.12-3.12,0.12-.84-0.15-1.76.31-2.51a4.343,4.343,0,0,0,.62-2.33v-0.13c-0.01-.36-0.01-0.73,0-1.09a7.166,7.166,0,0,1,1-4.62c1.53,0.26,1.06,2.22,2.45,2.29a1.006,1.006,0,0,0,.65-0.87v-0.4c-0.11-2.14.52-4.22,0.48-6.36-0.02-.71-0.07-1.6.65-1.91,1.07-.45,1.58-1.53,2.54-2.17a2.137,2.137,0,0,1,.53,1.97,5.263,5.263,0,0,1-.12,1.72c-0.2,1.4-.55,2.8-0.62,4.2a6.344,6.344,0,0,0,.84,2.86c-0.03.26-.07,0.52-0.11,0.78,0.04,0.07.07,0.15,0.11,0.22-0.11.77-.21,1.54-0.33,2.31-0.84,5.32-1.81,10.62-1.8,16.04-0.48,1.76-.16,3.68-1.12,5.35a7.355,7.355,0,0,1,.19,2.23,31.633,31.633,0,0,1-.5,4.74c-0.17,1.64.13,3.35-.82,4.95a0.02,0.02,0,0,1-.01.02,1.586,1.586,0,0,0,1.29.61,2.382,2.382,0,0,0,.54-2.02,5.192,5.192,0,0,1,1.77-4.15,5.247,5.247,0,0,0,1.86-3.09v-0.03a3.977,3.977,0,0,1-.02-1.19c-0.26-2.26,1.37-4.01,1.39-6.16a1.651,1.651,0,0,1,.66-0.79,4.348,4.348,0,0,0,1.16-1.17c-0.08-.26-0.18-0.56-0.33-0.95a3.993,3.993,0,0,1-.29-2.08,3.055,3.055,0,0,1,.83-2.64,4.111,4.111,0,0,0,1.07-2.26,6.359,6.359,0,0,0-.58-1.96c-0.74.74-.79,2.23-2.43,2.2a11.814,11.814,0,0,1-.06-1.77,5.26,5.26,0,0,1,.94-3.65c0.74-.54,1.77-0.93,1.99-1.83a2.981,2.981,0,0,1,.03-0.6v-0.03a4.75,4.75,0,0,1,.49-2.57c-0.55-1.1-.77-1.73-0.55-2.29-0.3-1.08.2-1.56,1.79-2.64a3.306,3.306,0,0,0,1.37-1.54,65.479,65.479,0,0,0,2.69-7.68,1.119,1.119,0,0,1,.77-0.27,1.252,1.252,0,0,1-.06-1.17c-0.23-.58-0.12-0.85.39-1.77a3.155,3.155,0,0,0,.32-0.97,2.734,2.734,0,0,0-.1-0.48c-0.2-.68-0.4-1.36-0.59-2.04h0a2.791,2.791,0,0,0,.19-0.33c-0.06-.23-0.13-0.45-0.19-0.67h0a2.41,2.41,0,0,0,.42-1.28,2.115,2.115,0,0,1,2.42-.89c0.96,0.37.95,1.31,0.98,2.17,0.01,0.14.01,0.29,0.01,0.43l-0.03.09c0.01,0.16.02,0.32,0.02,0.48,0.01,0.14.01,0.29,0.01,0.43a4.372,4.372,0,0,0-.34,1.7c0.01,0.39.02,0.79,0,1.17a7.41,7.41,0,0,1-.16,2.11,0.169,0.169,0,0,1,.02.05,10.063,10.063,0,0,1,.65,4.13,12.073,12.073,0,0,1-.02,1.47c0.14,1.17.99,1.85,2.53,2.15,0.74-.43.67-1.19,0.77-1.88a7.669,7.669,0,0,1,1.19-3.82,4.435,4.435,0,0,0,1.03-2.92c-0.02-1.37.51-1.61,2.1-1.25a1.644,1.644,0,0,1,.19,1.39,2.452,2.452,0,0,1-.13,1.46c-1.05,3.41-1.03,7.25-3.89,9.96a1.4,1.4,0,0,0-.29.57,6.022,6.022,0,0,1-1.72,2.38,5.636,5.636,0,0,0-1.62,3.92,5.468,5.468,0,0,0,.45.32c1.29-.67,1.75-2.04,2.66-2.99s0.98-2.58,2.81-3.26a4.913,4.913,0,0,0-.37,1.17,3.171,3.171,0,0,1,.37-0.17,4.488,4.488,0,0,0-.4,1.49,9.309,9.309,0,0,0,.35,1.68,7.436,7.436,0,0,1,.29,2.6,4.518,4.518,0,0,1-1.18,3.61,3.207,3.207,0,0,0-.82,1.68c0.01,0.04.01,0.08,0.02,0.12a50.524,50.524,0,0,1,.58,8.68,23.076,23.076,0,0,1,.09,2.35,4.368,4.368,0,0,1-.57,2.81,17.627,17.627,0,0,0-1.71,3.88c-0.62,1.63-1.1,3.31-2.87,4.3a5.249,5.249,0,0,0-1.89,2.78,4.913,4.913,0,0,0-.15.51,1.506,1.506,0,0,0,.75.87c1.19-.58.79-2.06,2.03-2.81a2.155,2.155,0,0,0,2.41-1.54,76.978,76.978,0,0,1,4.33-9.69,6.806,6.806,0,0,0,.28-1.24c0.7-2.38,1.02-4.9,2.38-7.04a14.568,14.568,0,0,0,1.8-3.83c0.21-.29.44-0.55,0.62-0.85,1.3-2.12,1.3-2.12,3.67-1.28,0,0.14-.01.28-0.02,0.42-0.14.14-.27,0.28-0.4,0.43q0.2,0.06.42,0.15c0,0.14-.01.28-0.02,0.42-0.14.15-.28,0.29-0.42,0.44,0,0.14-.01.28-0.02,0.42-0.13.14-.27,0.29-0.4,0.44,0,0.42-.01.83-0.01,1.25a0.981,0.981,0,0,0,1.09-.77,22.394,22.394,0,0,0,.98-2.58,3.212,3.212,0,0,1,2.65-2.45c0.69-.15,1.37-0.34,2.05-0.55a1.367,1.367,0,0,0,1.13-.88c0.24-1.49,1.03-2.87,1.18-4.4a4.376,4.376,0,0,0-.14-0.76,6.232,6.232,0,0,1-.27-2.33,3.658,3.658,0,0,1,1.4-3.5,1.781,1.781,0,0,0,.63-0.95,1.984,1.984,0,0,0-.13-0.39c-0.41-.89-0.84-1.76-1.21-2.54-0.66-.45-1.42-0.02-2.05-0.72a2,2,0,0,1-.14-1.34,5.389,5.389,0,0,1,.12-1.76c0.2-1.61.56-3.11,2.55-3.43a2.073,2.073,0,0,0,1.25-1.08,8.874,8.874,0,0,1,1.39-1.34c-1.12-.48-2.37-0.71-2.67-1.99-0.67-.31-1.32.06-1.78-0.41a9.376,9.376,0,0,1-.57-3.76,5.825,5.825,0,0,1,1.84-4.97c0.88-.14,1.64,1.31,2.65.34a3.193,3.193,0,0,1-.02-1.11,4.217,4.217,0,0,1,.85-2.99,3.59,3.59,0,0,0,.59-1.37,2.368,2.368,0,0,0-.08-0.34,20.312,20.312,0,0,1-2.22-2.15c-0.73-.89-2.06-0.7-2.91-1.19-0.69.25-.83,1.02-1.52,0.98-0.72-.85-0.96-1.56-0.69-2.11a1.167,1.167,0,0,1,.53-1.55c0.53-.11,1.13.55,1.92-0.03a0.9,0.9,0,0,0,.37-0.46,3.039,3.039,0,0,1-.06-1.34,1.8,1.8,0,0,1,.22-1.46c1.42,1.01.54,3.04,2.05,3.99a2.661,2.661,0,0,0,1.16-1.66,4.7,4.7,0,0,1,0-1.06,6.615,6.615,0,0,1,.39-2.72,8.4,8.4,0,0,0,.35-1.29,3.036,3.036,0,0,0-.23-0.75c-1.38,1.39-3.37,1.13-4.55,2.39a2.577,2.577,0,0,1-1.28-.95h0v-1h0v-1.28c0.14-.29.28-0.57,0.42-0.86v-0.42c0.04-1.18.28-2.22,1.51-2.59,0.79,0.3.54,1.28,1.35,1.47,1.39-.05,1.59-1.62,2.48-2.13,0.64-.26,1.01.48,1.63,0.07,0.85-.85.75-2.13,1.02-3.27,0.45-1.92.6-3.91,1.81-5.59a2.31,2.31,0,0,0,.34-0.79,1.829,1.829,0,0,0-.06-0.25,3.629,3.629,0,0,1-.18-1.71,4.317,4.317,0,0,1,.28-2.17c0.03-.09.05-0.17,0.07-0.25a1.472,1.472,0,0,0-1.08-.92,1.907,1.907,0,0,1-1.49-1.35,3.194,3.194,0,0,0-2.11,3.32,4.815,4.815,0,0,1-1.01,3.15,9.076,9.076,0,0,0-1.55,4.77c-0.07.84-.11,1.69-0.15,2.54a1.086,1.086,0,0,1-.78,1.31c-0.84.12-1.06-.54-1.2-1.18-0.3-1.37-.58-2.73-0.88-4.1h0a3.172,3.172,0,0,1-.36-2.05,4.666,4.666,0,0,1,.23-2.01,11.051,11.051,0,0,0,.5-1.83v-0.1c-0.15-.99-0.83-1.34-2.27-1.23-2.05.17-3.67,1.34-5.26,2.5a1.047,1.047,0,0,0-.39.56,3.4,3.4,0,0,1,.02,1.1,5.673,5.673,0,0,1-1,3.49,2.439,2.439,0,0,0-.42,1.28h0c-0.86-.08-1.37-1.05-2.46-0.89-0.54,1.36-1.12,2.77-1.66,4.18,0,0.17-.01.33-0.01,0.49,0,0.05.01,0.11,0.01,0.17,0.06,3.11-.85,4.19-3.81,4.52a7.441,7.441,0,0,0-2.09,4.92,3.934,3.934,0,0,0,.02.48,20.278,20.278,0,0,1,.18,2.94,5.725,5.725,0,0,1-.51,3,2.168,2.168,0,0,0,.52.53c-0.09,1.39.99,2.36,1.45,3.66a1.741,1.741,0,0,1-.4.14,6.716,6.716,0,0,1,.4.86c-1.42.63-2.15-.06-2.73-1.1a2.381,2.381,0,0,0-.44-1.29h-0.41c-0.15,0-.29.01-0.43,0.01-0.64-2.54-.56-5.17-0.99-7.74a2.593,2.593,0,0,1,.03-0.83c-0.01-.06-0.02-0.12-0.03-0.17a3.2,3.2,0,0,1,.29-1.66,5.446,5.446,0,0,0,.44-1.73,8.559,8.559,0,0,0-.83-2.8,3.825,3.825,0,0,1-.42-2.31,2.934,2.934,0,0,1,.24-1.75,2.9,2.9,0,0,0,.16-0.47,4.364,4.364,0,0,0-.17-0.59,6.342,6.342,0,0,1-.44-2.86c-0.21-2.51,1.17-4.59,2.6-6.69,1.73,0.69.71,2.6,1.83,3.51,1.88-.77,1.98-2.79,3.18-4.06a5.7,5.7,0,0,1-1.48-4.46,8.564,8.564,0,0,1,.12-2,2.582,2.582,0,0,0,.03-0.29,4.08,4.08,0,0,0-.34-1.2,1.6,1.6,0,0,1-.1-1.27,1.377,1.377,0,0,1,.67-1.75c0.82-.49,1.62-0.91,2.52-0.12,0.52,0.45.92,1.13,1.8,1.08a2.173,2.173,0,0,0,.43-0.38,1.9,1.9,0,0,0,.24-0.52v-1.02c-0.01-1.23.03-2.46,0.05-3.68a17.222,17.222,0,0,0-.6-4.72,1,1,0,0,1,.05-0.76c-0.02-.08-0.03-0.16-0.05-0.24a0.86,0.86,0,0,1,.61-1.18c1.74,1.26,2.2,2.02,2.26,3.97,0.03,1.05.14,1.97,1.43,2.22a2.645,2.645,0,0,0,.82-1.43,4.361,4.361,0,0,0-.38-1.12,3.6,3.6,0,0,1-.37-2.17,3.664,3.664,0,0,1,.8-2.8,4.256,4.256,0,0,0,.71-1.28,9.14,9.14,0,0,1-.02-1.28,22.968,22.968,0,0,1,.08-2.35,3.654,3.654,0,0,0-.93-2.39c0.12-.23.21-0.4,0.31-0.6a3.6,3.6,0,0,0-.31-0.4,20.422,20.422,0,0,0,1.32-2.68,2.8,2.8,0,0,0-1.07-.86,0.709,0.709,0,0,0-.6.53c-0.14,1.13-.45,2.25-0.53,3.39a5.1,5.1,0,0,0,.24,1.26,2.925,2.925,0,0,1,.16,1.58,1.925,1.925,0,0,1-.61,1.97,12.82,12.82,0,0,0-2.06,2.42,1.013,1.013,0,0,1-1.31.53,1.135,1.135,0,0,1-.06-1.11,2.1,2.1,0,0,1,.38-1.81,6.442,6.442,0,0,0,.52-1.8,4.108,4.108,0,0,0-.39-1.3h0a1.79,1.79,0,0,1,.12-0.72c-0.04-.09-0.08-0.18-0.12-0.28h0a4.565,4.565,0,0,1,.48-1.67,3.784,3.784,0,0,0-.22-0.33c-1.08-1.3-1.52-2.34-1.33-3.43-0.21-1.12.25-2.19,1.42-3.54a1.946,1.946,0,0,0,.67-1.06,2.515,2.515,0,0,1,1.76-2.18,1.52,1.52,0,0,0,.59-0.46c-0.59-.62-1.63-0.21-2.31-1.03-0.25-1.19-1.48-2.26-1.18-3.77a2.4,2.4,0,0,1,.01-1.13c0.87-.39,1.36.69,2.15,0.3,1.23-.94,1.84-1.48,2.02-2.16a11.836,11.836,0,0,0-.48-1.6,5.364,5.364,0,0,1-.34-1,1.522,1.522,0,0,1,.06-0.78,1.8,1.8,0,0,1-.06-0.22,1.071,1.071,0,0,1,1.54-1.28c0.32,0.13.57,0.45,0.89,0.58,1.12,0.43,1.8,1.59,2.99,1.86a5.632,5.632,0,0,0,.88-0.99c-0.05-.16-0.12-0.34-0.2-0.56-0.52-1.34-.75-1.94-0.53-2.46-0.29-1.08.1-1.37,1.63-2.51a3.156,3.156,0,0,0,1.31-1.79,3.6,3.6,0,0,0-1.77-2.12c-1.02.25-1.28,1.69-2.56,1.75-0.55-1.3-.73-2.65-1.3-3.88a2.516,2.516,0,0,1-.29-1.84c-0.3-1.21.29-1.86,1.85-2.24a8.971,8.971,0,0,1,1.27-.14c1.18,1.75,2.75,3.29,2.77,5.62a1.217,1.217,0,0,0,.35.76,5.581,5.581,0,0,1,1.56,2.94c0.25,1.26,1.5,1.51,2.44.59a5.237,5.237,0,0,1,1.62-1.34,1.462,1.462,0,0,0,.97-0.97c-0.01-.04-0.02-0.08-0.03-0.13a13.172,13.172,0,0,0-1.41-4c-1.24-1.91-1.13-4.15-1.59-5.91a2.128,2.128,0,0,1,.16-0.25c-0.05-.26-0.1-0.51-0.16-0.75a1.781,1.781,0,0,1,1.17-.94,1.343,1.343,0,0,1-.6-1.59l0.03-.09a1.094,1.094,0,0,1-.03-0.91,2.908,2.908,0,0,0,.16-0.68c-0.05-.47-0.14-0.94-0.16-1.4l0.1-.07c-0.04-.31-0.09-0.62-0.1-0.93,1.36-.88,2.11-1.54,2.34-2.24a5.5,5.5,0,0,0-.8-1.56c-1.8,2.04-2.83,4.7-5.1,6.38-0.84-1.17-1.15-1.93-.86-2.47-0.41-1.15.32-1.66,2.42-2.17a1.792,1.792,0,0,0,.2-0.42,1.113,1.113,0,0,0-.22-0.38,5.961,5.961,0,0,1-1.24-4.45c-0.02-.77.03-1.56,0.05-2.33q-0.015-.54,0-1.08c-0.02-.62.01-1.24,0.02-1.85a7.325,7.325,0,0,0-.48-2.65,2.664,2.664,0,0,1-.16-1.56,2.126,2.126,0,0,1,1.3-2.5,3.843,3.843,0,0,0,.49-0.28,1.7,1.7,0,0,0-1.43-1.27c-1.71-.46-2.05-0.91-1.94-2.61a5.493,5.493,0,0,1,0-.91,3.831,3.831,0,0,0-1.1-2.3,2.073,2.073,0,0,1-.88-1.32,4.386,4.386,0,0,1,.13-0.54,1.242,1.242,0,0,1-.13-0.46,4.142,4.142,0,0,1,.17-0.68c0.81-2.19,2.2-2.88,4.52-2.25,1.48,0.4,1.97.95,1.82,2.6a6.838,6.838,0,0,1-.16,2.08c-0.04.21-.07,0.42-0.09,0.62a3.192,3.192,0,0,0,1.43,2.32,4.048,4.048,0,0,1,1.69,2.88c0.36,3.48,1.62,6.77,2.09,10.22a20.8,20.8,0,0,0,.41,2.74c0.4,1.44,1.09,2.7,2.71,3.07a1.563,1.563,0,0,0,.36-0.82,2.449,2.449,0,0,1,.03-0.54,3.106,3.106,0,0,1,.05-1.22,3.434,3.434,0,0,0,.14-0.5,3.513,3.513,0,0,0-.9-1.62,7.806,7.806,0,0,1-1.71-4.94c-0.06-.88-0.1-1.77-0.08-2.65a17.228,17.228,0,0,1,.17-3.04c0.02-.14.03-0.28,0.05-0.43a3.929,3.929,0,0,0-.12-0.67,8.088,8.088,0,0,1-.26-2.56,7.988,7.988,0,0,1,1.11-4.59,4.822,4.822,0,0,0,.55-1.29,2.253,2.253,0,0,0-.19-0.53c0-.28,0-0.57-0.01-0.85,0.01-.05.01-0.09,0.02-0.14a0.01,0.01,0,0,1-.01-0.01c0-.28,0-0.57-0.01-0.85,0.05-.45.07-0.89,0.09-1.34a11.932,11.932,0,0,0-.7-3.7,3.646,3.646,0,0,1-.13-1.54,14.823,14.823,0,0,1,.04-1.76c-0.01-.97.11-1.95,0.15-2.92a5.723,5.723,0,0,0-.71-2.69c-0.01-.14-0.01-0.27-0.02-0.41,0.04-.16.07-0.28,0.1-0.42-0.03-.06-0.05-0.11-0.08-0.17-0.01-.14-0.01-0.27-0.02-0.41,0.5-2.3.57-2.35,2.55-2.13A12.929,12.929,0,0,1,1486.25,3024.15Zm-17.36,260.99a3.363,3.363,0,0,0,.42.98c0.25-.41.43-0.72,0.55-0.97a4.313,4.313,0,0,0-.66-0.71A2.507,2.507,0,0,0,1468.89,3285.14Zm17.42-7.64c-0.01.12-.01,0.23-0.01,0.34,0-.11,0-0.22.01-0.34h0Zm0-.18h0v0Zm0-.76h0Zm-73.45-23.84a3.777,3.777,0,0,0-.43-1.13,4.047,4.047,0,0,0-1.08,1.33,3.261,3.261,0,0,0,.81,1.08A2.868,2.868,0,0,0,1412.86,3252.72Zm62.39,2.68a15.844,15.844,0,0,0-1.3,3.56,5.3,5.3,0,0,0,.13.62c0.99,0.17,1.45-.84,2.27-0.72,0.74-.02,1.15.89,2.26,0.56,0.04-.56.07-1.11,0.08-1.67a9.048,9.048,0,0,0-1.07-4.28A2.368,2.368,0,0,0,1475.25,3255.4Zm5-8.45a7.582,7.582,0,0,0,.61-3.07v-0.06c-0.01-.61-0.48-0.99-1.39-0.82-1.13,1.14-.72,2.77-1.09,4.26C1479.59,3247.88,1479.86,3247.81,1480.25,3246.95Zm-5.47-2.66h0Zm0.31,2.58h0Zm-4.01-1.61a3.538,3.538,0,0,0,.26,1.12,1.54,1.54,0,0,0,.96-0.38,13.024,13.024,0,0,0,2.22-2.04c-0.54-.84-0.6-2.05-1.77-2.42A6.489,6.489,0,0,0,1471.08,3245.26Zm3.04-6.57c0.03,0.11.06,0.22,0.1,0.34a1.783,1.783,0,0,0,.66-0.01,13.764,13.764,0,0,0,1.34-.43,1.744,1.744,0,0,0-1.1-.85A1.767,1.767,0,0,0,1474.12,3238.69Zm10.04-26.22a4.87,4.87,0,0,0,.67,2.24c0.82-.71.87-1.78,1.25-2.65a4.169,4.169,0,0,0,.2-0.55,4.106,4.106,0,0,0-1.57-1.35A8.615,8.615,0,0,0,1484.16,3212.47Zm-3.49-65.58a5.034,5.034,0,0,0,.07.97,1.742,1.742,0,0,0,.52-0.15,1.666,1.666,0,0,1-.52-0.85A0.488,0.488,0,0,1,1480.67,3146.89Zm3.49-4.35c-1.72.35-1.93,1.64-1.87,2.93-0.44.62-1.24,0.32-1.44,0.77a1.674,1.674,0,0,0-.14.39,1.6,1.6,0,0,1,.03.23c0.77-.07,1.22-0.83,2.14-0.76a2.613,2.613,0,0,0,3.1-2.62C1485.83,3142.63,1485.22,3142.33,1484.16,3142.54Zm-29.86,37.18h0Zm16.62-98.57h0Zm10.06-114.53a3.653,3.653,0,0,1,.84-2.8c1.05-1.44,1.25-3.14,1.65-4.78a1.167,1.167,0,0,0-.43-0.64c-0.76-.44-1.35.24-1.98,0-0.87-.46-0.53-1.6-1.18-2.14-0.8-.51-1.74.33-2.67-0.52a4.107,4.107,0,0,0,.26-0.82,2.029,2.029,0,0,1-.26-0.18c0.76-1.72.09-3.87,1.76-5.57a2.091,2.091,0,0,0,.54-1.14,8.352,8.352,0,0,0-.38-1.55c-1.82.11-1.54,2.61-3.4,2.72a2.361,2.361,0,0,1-.17-1.53,4.032,4.032,0,0,1,.5-2.43,11.391,11.391,0,0,0,.59-1.41,0.84,0.84,0,0,0-.86-0.46,1.481,1.481,0,0,0-.66,1.27c-0.49,1.74-1.11,2.03-2.79,1.31a2.626,2.626,0,0,1-.57-0.43,1.392,1.392,0,0,1-.02-1.06,1.692,1.692,0,0,1,.36-1.65,5.183,5.183,0,0,0,.94-2.79,3.3,3.3,0,0,1,.74-1.96,9.891,9.891,0,0,0,1.23-2.23,5.138,5.138,0,0,0,.43-1.51,4.6,4.6,0,0,0-.74-1.96,12,12,0,0,1-1.02-1.86,6.849,6.849,0,0,1-.52-3.12c-0.28-3.04,1.8-5.24,4.49-6.78,0.85-.48,1.85-0.69,2.44-1.56a1.539,1.539,0,0,1,.57,1.76,2.306,2.306,0,0,1-.02,1.11c-0.55,3.36-.6,6.79-1.4,10.13a14.188,14.188,0,0,0-.39,2.24,5.179,5.179,0,0,0,.17.97c0.46,0.23.82,0.17,0.91-.08,0.69-1.92,2.1-3.57,2.07-5.75-0.01-1.31.71-2.45,0.92-3.71,0.06-.4.13-0.79,0.17-1.18a3.422,3.422,0,0,0-.34-1.15,1.955,1.955,0,0,1-.16-1.44,1.831,1.831,0,0,1,.96-2.14,2.819,2.819,0,0,0,1.42-2.52c0-.39-0.01-0.78,0-1.17-0.01-.66,0-1.31.02-1.96a3.345,3.345,0,0,1,1.28-2.75,3.662,3.662,0,0,1,1.69.35v34.28a1.55,1.55,0,0,0-.82,1.17c0.01,0.1.02,0.2,0.03,0.29a5.256,5.256,0,0,1,.03,1.31,3.478,3.478,0,0,1-.46,2.35,1.954,1.954,0,0,0-.26.62,4.231,4.231,0,0,0,.18.65,6.646,6.646,0,0,1,.36,2.76,9.024,9.024,0,0,1-.77,4.02c-0.77,1.89-1.03,3.96-1.71,5.9-0.58,1.63-1.79,2.54-3.25,3.53A3.3,3.3,0,0,1,1480.98,2966.62Zm5.05-238.45a5.243,5.243,0,0,1,.03-1.29c0-.05.01-0.11,0.01-0.16a1,1,0,0,0-.1-0.29,2,2,0,0,0-1.02-.72,1.5,1.5,0,0,1-.86-1.91,2.59,2.59,0,0,1,.03-1.2,63.622,63.622,0,0,0,1.22-7.11c0.18-1.79.88-2.94,2.6-3.44v18.07C1486.06,2729.77,1485.9,2729.68,1486.03,2728.17Z"/>
  <path class="cls-1" d="M1819.03,3454.34a5.689,5.689,0,0,1,.81,1.66,5.4,5.4,0,0,1-1.14,4.69,12.39,12.39,0,0,1-3.33,3.08,27.057,27.057,0,0,1-4.78,2.51,21.348,21.348,0,0,1-5.18,1.41,9.612,9.612,0,0,1-4.61-.35,4.159,4.159,0,0,1-2.66-2.34,7.757,7.757,0,0,1-.33-0.96c-5.15,2.33-10.23,4.62-15.16,6.86,0.31,0.87.66,1.73,1.06,2.58a22.178,22.178,0,0,0,3.92,5.72,15.092,15.092,0,0,0,5.71,3.79,28.6,28.6,0,0,0,12.09,1.88,28.091,28.091,0,0,0,10.54-2.84,30.792,30.792,0,0,0,8.46-6.23,33.23,33.23,0,0,0,5.86-8.19,25.7,25.7,0,0,0,2.67-8.8,15.175,15.175,0,0,0-1.07-7.96c-0.32-.74-0.66-1.45-1.03-2.12Q1825.085,3451.535,1819.03,3454.34Zm-61.02-157.38c0.37-2.7.6-5.03,0.7-6.97q-6.285.735-12.49,1.99t-12.46,2.56q-6.225,1.32-12.44,2.33t-12.3,1.9l-3.5.6a3.322,3.322,0,0,1-1.42.38,5.084,5.084,0,0,0-1.46.29q1.815,4.815,3.97,10.07t4.22,10.08q3.855-1.845,8.15-3.77t8.48-3.7c2.79-1.17,5.46-2.29,7.99-3.34s4.77-1.96,6.7-2.72q-1.965,5.325-3.81,10.75,9.12-5.355,18.26-10.73c0.09-.61.18-1.24,0.28-1.9C1757.27,3302.27,1757.64,3299.66,1758.01,3296.96Zm-65.32-19.14q2.61,5.1,5.12,10.24t5.29,10.46a43.343,43.343,0,0,0,7.2-3.03q3.6-1.89,7.26-3.64c-1.11-2.16-2.18-4.19-3.21-6.11a63.928,63.928,0,0,1-2.88-6.16c2.38-1.13,4.94-2.23,7.66-3.3s5.5-2.13,8.31-3.19,5.58-2.15,8.33-3.26,5.31-2.24,7.69-3.38a70.084,70.084,0,0,0-3.85-8.18q-2.235-4.08-4.55-8.43-3.24,1.665-7.04,3.36t-7.74,3.4q-3.93,1.7-7.66,3.18c-2.49.99-4.77,1.86-6.86,2.62-1.01-1.96-2.01-3.96-2.97-5.99s-1.95-4.07-2.93-6.13c-0.01,0-.02.01-0.03,0.01q-5.79,3.15-11.55,6.31-2.73,1.635-5.48,3.29c1.58,2.59,3.09,5.15,4.46,7.66Q1690.08,3272.725,1692.69,3277.82Zm-77.84-160.71c1.2,2.44,2.39,4.9,3.59,7.41q4.965-2.25,9.84-4.45,4.86-2.205,9.64-4.37,1.575,2.805,2.86,5.39c0.86,1.72,1.84,3.55,2.92,5.49a6.2,6.2,0,0,0-1.4.42,2.854,2.854,0,0,1-1.1.29,13.142,13.142,0,0,1-1.82,1.05q-1.47.765-2.58,1.41-3.285,1.8-6.54,3.54c-2.17,1.15-4.26,2.28-6.25,3.39q1.47,3.33,3.09,7c0.7,1.56,1.42,3.09,2.14,4.62,1.72-.75,3.45-1.51,5.15-2.3,14.17-7.4,28.14-15,42.02-22.69-0.18-.34-0.35-0.67-0.53-1.01-1.5-2.8-2.83-5.35-4-7.63a85.374,85.374,0,0,0-7.72,3.68q-3.57,1.935-7.43,3.78a105.948,105.948,0,0,1-6.43-11.98c2.52-1.36,5.04-2.72,7.59-4.09s5.07-2.74,7.58-4.1c-1.92-4.18-3.94-8.39-6.02-12.62-14.68,8.08-29.84,16.45-45.8,25.29C1614.05,3115.46,1614.44,3116.3,1614.85,3117.11Zm-7.08-132.49c-0.85.44-1.73,0.92-2.63,1.43s-1.79,1.01-2.66,1.51-1.62.89-2.27,1.2c0.03,0.38-.11-0.24-0.42-1.88s-0.68-3.7-1.12-6.21-0.99-5.22-1.63-8.12-1.24-5.47-1.84-7.71q-5.34,1.95-10.56,3.68-5.22,1.71-10.46,3.39,3,3.54,5.85,7.04a87.342,87.342,0,0,1,5.59,7.76c-3.5-.38-7.1-0.62-10.81-0.7a58.558,58.558,0,0,1-10.43-1.13c-1.05-.21-2.1-0.48-3.16-0.8a9.843,9.843,0,0,0-3.22-.42c0.04,1.25.12,2.65,0.23,4.22s0.26,3.15.44,4.76,0.34,3.2.49,4.75a37.84,37.84,0,0,1,.18,4.24c3.67,0.07,7.33.09,11,.08s7.36,0,11.09.04q-4.5,2.745-8.56,5.15t-8.12,5.06c0.84,1.42,1.75,3.1,2.75,5.03,0.1,0.18.18,0.35,0.27,0.53q22.5-13.995,44.98-28.01c-0.97-1.92-1.93-3.85-2.88-5.83A15.011,15.011,0,0,0,1607.77,2984.62Z"/>
  <path class="cls-1" d="M1937.16,3315.73q-6.255.9-12.43,2.31t-12.38,2.89q-6.21,1.485-12.39,2.66c-4.12.77-8.2,1.52-12.24,2.22l-3.48.69a3.5,3.5,0,0,1-1.41.42,4.958,4.958,0,0,0-1.46.32q1.95,4.77,4.24,9.96c0.09,0.2.17,0.39,0.26,0.58q25.62-10.515,51.25-21.05C1937.14,3316.39,1937.16,3316.05,1937.16,3315.73Zm-49.36-24.96q1.14,2.355,2.43,4.76c0.86,1.61,1.8,3.35,2.84,5.22a21.325,21.325,0,0,0,4.54-2.26q2.31-1.47,4.69-2.93-1.02-1.515-2.66-4.04-0.87-1.245-1.89-2.76a24.4,24.4,0,0,1,2.91-.65,14.807,14.807,0,0,1,2.32-.28,5.443,5.443,0,0,1,1.84.21,5.632,5.632,0,0,1,2.74,2.2,7.1,7.1,0,0,1,1.1,3.1,10.691,10.691,0,0,1-.16,3.33,9.167,9.167,0,0,1-1.06,2.87,17.423,17.423,0,0,1-3.57,4.76,14.464,14.464,0,0,1-4.82,3.01,14.627,14.627,0,0,1-4.01.84,17.375,17.375,0,0,1-4.38-.23,13.557,13.557,0,0,1-4.07-1.41,10.16,10.16,0,0,1-3.15-2.53,9,9,0,0,1-1.8-4.01,23.684,23.684,0,0,1-.42-4.11,24.817,24.817,0,0,1,.59-4.5c-1.66-.43-3.28-0.85-4.84-1.25-1.31-.37-2.69-0.77-4.15-1.19s-2.72-.83-3.81-1.24a18.275,18.275,0,0,0-1.61,10.97,35.2,35.2,0,0,0,3.7,10.78,22.891,22.891,0,0,0,6.78,8.25,20.68,20.68,0,0,0,9.18,3.78,28.031,28.031,0,0,0,10.99-.68,48.048,48.048,0,0,0,12.15-4.99,26.951,26.951,0,0,0,6.77-5.44,19.412,19.412,0,0,0,4.13-7.2,22.061,22.061,0,0,0,.79-8.81,28.634,28.634,0,0,0-3.19-10.14,22.988,22.988,0,0,0-5.6-7.47,15.49,15.49,0,0,0-6.46-3.25,17.433,17.433,0,0,0-6.79-.14,39.985,39.985,0,0,0-6.65,1.77,62.06,62.06,0,0,0-6.08,2.56c-1.89.92-3.56,1.68-5.02,2.26q1.89,3.24,3.22,5.86T1887.8,3290.77Zm7.78-40.88q-9.6,6.57-20.05,12.32t-21.63,12.29q1.65,3,3.27,6.07t3.18,6.12a0.437,0.437,0,0,0,.58-0.05q11.43-5.34,22.94-11.94,11.52-6.585,23.04-12.7c-0.58-.82-1.2-1.77-1.87-2.83s-1.33-2.16-2.03-3.29-1.39-2.21-2.08-3.26-1.38-2-2.06-2.85a5.664,5.664,0,0,0-.6-0.6,0.3,0.3,0,0,1-.07-0.5,1.523,1.523,0,0,0-1.43.37A6.188,6.188,0,0,1,1895.58,3249.89Zm-90.83-103.16c-2.23,1.13-4.48,2.2-6.77,3.21a48.383,48.383,0,0,0-6.33,3.34q2.745,4.14,5.38,8.41,5.805-3.9,11.63-7.76C1807.38,3151.61,1806.08,3149.22,1804.75,3146.73Zm28.42-13.89q-3.09,1.695-6.52,3.2,1.245,2.175,2.44,4.43,6.015-3.93,12.02-7.86c-0.47-1-.95-1.97-1.41-2.98C1837.41,3130.64,1835.24,3131.71,1833.17,3132.84Zm-50.36-.2q4.335,7.335,8.75,14.57,11.235-5.97,22.46-11.81,11.25-5.85,22.38-11.77-3.69-7.245-7.36-14.32t-7.17-14.65c-2.28,1-4.46,2.07-6.52,3.2s-4.23,2.2-6.52,3.21q2.235,3.9,4.36,8.1,2.145,4.185,4.32,8.24-1.89,1.215-3.9,2.35-1.995,1.14-4.04,2.3a2.461,2.461,0,0,1-.65-0.93c-0.38-.65-0.8-1.45-1.29-2.4l-1.51-2.96c-0.51-1.01-.92-1.89-1.21-2.62-1.33.68-2.67,1.36-4,2.04s-2.68,1.33-4.05,1.94q0.975,2.145,2.07,4.17t2.2,3.98c-0.82.58-1.67,1.19-2.54,1.84s-1.62,1.21-2.26,1.69q-2.52-4.485-4.77-8.55-2.265-4.08-4.64-8.51-3.33,1.71-6.76,3.21a48.413,48.413,0,0,0-6.33,3.35Q1778.48,3125.3,1782.81,3132.64Zm-9.07-20.4q11.235-5.97,22.46-11.82,11.235-5.835,22.38-11.76-3.69-7.245-7.36-14.32c-0.6-1.17-1.19-2.38-1.79-3.56q-6.15,3.405-12.25,6.86c0.84,1.6,1.67,3.23,2.51,4.8-1.26.8-2.56,1.59-3.9,2.34s-2.68,1.53-4.04,2.31a2.4,2.4,0,0,1-.66-0.93c-0.37-.65-0.8-1.45-1.28-2.41-0.24-.47-0.5-0.98-0.76-1.48q-3.87,2.22-7.72,4.46c0.65,1.21,1.31,2.41,1.98,3.58-0.82.58-1.67,1.19-2.54,1.83s-1.62,1.21-2.26,1.69q-1.185-2.1-2.31-4.12-5.925,3.465-11.83,6.94c0.21,0.34.42,0.67,0.62,1.02Q1769.325,3104.99,1773.74,3112.24Zm-18.24-146.66q-2.13,1.7-4.37,3.55a24.9,24.9,0,0,1-4.7,3.12,5.484,5.484,0,0,0,.24-2.34c-0.09-.8-0.16-1.58-0.23-2.35-0.15-2.48-.34-4.97-0.56-7.45s-0.4-4.94-.52-7.37q-5.295,1.38-10.83,2.76t-10.68,2.81q1.65,3.72,3.43,7.32a66.6,66.6,0,0,1,3.09,7.36,10.107,10.107,0,0,1-3.54-.71,16.057,16.057,0,0,0-3.79-.95c-0.44-.1-1-0.21-1.67-0.35s-1.37-.26-2.11-0.37-1.43-.19-2.1-0.24a4.325,4.325,0,0,0-1.63.1,9.478,9.478,0,0,0-4.54,2.86,16.17,16.17,0,0,0-2.62,3.8,5.112,5.112,0,0,0-.56,1.6,9.38,9.38,0,0,0-.23,2.04,20.6,20.6,0,0,0,.96,6.35,55.522,55.522,0,0,0,2.66,6.99c0.42,0.91.87,1.8,1.33,2.69q23.01-11.34,46.14-22.43C1757.64,2971.45,1756.6,2968.53,1755.5,2965.58Z"/>
  <path class="cls-1" d="M2025.32,3275.77q4.23,6.75,8.53,13.4,10.35-5.85,20.7-11.59t20.61-11.54q-3.615-6.675-7.22-13.2t-7.05-13.51c-2.11.99-4.12,2.05-6.02,3.15s-3.9,2.16-6.02,3.16c1.46,2.39,2.88,4.88,4.28,7.46s2.82,5.11,4.24,7.59c-1.16.79-2.36,1.55-3.59,2.29s-2.46,1.49-3.72,2.25a2.167,2.167,0,0,1-.63-0.85q-0.555-.9-1.26-2.22c-0.48-.87-0.97-1.78-1.48-2.72s-0.91-1.74-1.2-2.42c-1.23.67-2.46,1.34-3.69,2s-2.47,1.31-3.73,1.92c0.64,1.32,1.32,2.6,2.03,3.84s1.43,2.47,2.16,3.67c-0.76.56-1.53,1.15-2.33,1.77s-1.49,1.17-2.07,1.64q-2.46-4.125-4.67-7.87t-4.54-7.83c-2.05,1.11-4.12,2.16-6.24,3.16a44.42,44.42,0,0,0-5.83,3.28Q2021.095,3269.02,2025.32,3275.77Zm-17.33-48.66a16.259,16.259,0,0,0-1.9,4.56,17.244,17.244,0,0,0-.5,5.05,32.294,32.294,0,0,0,.84,5.4,29.994,29.994,0,0,0,2.08,6.04,28.1,28.1,0,0,0,3.24,5.35,11.444,11.444,0,0,0,4.28,3.47,0.555,0.555,0,0,0,.58.03q10.1-5.49,20.18-10.68t20.25-10.94c-0.35-.79-0.74-1.68-1.16-2.67s-0.86-2-1.31-3.04-0.91-2.07-1.38-3.06-0.91-1.88-1.32-2.64q-4.47,2.43-8.93,4.91a90.569,90.569,0,0,1-8.99,4.37,1.789,1.789,0,0,1-.99-0.77c-0.54-.58-1.14-1.28-1.81-2.09s-1.34-1.62-2.01-2.44a15.35,15.35,0,0,0-1.65-1.77,18.11,18.11,0,0,0-5.54-3.31,13.217,13.217,0,0,0-6.14-1.04,10.081,10.081,0,0,0-4.54,1.78A12.107,12.107,0,0,0,2007.99,3227.11Zm-8.94-22.33q-1.125,3.795-2.11,7.63c-0.3.84-.56,1.71-0.8,2.6a20.851,20.851,0,0,0-.54,2.68c1.92,1.3,3.83,2.62,5.72,3.94s3.79,2.69,5.69,4.08a19.5,19.5,0,0,0,1.76-5.96q0.42-3.2,1.04-6.25c0.41-2.04.78-4.11,1.13-6.19s0.75-4.16,1.21-6.24a10.005,10.005,0,0,1,2.52-.39c1.65-.18,3.64-0.37,5.99-0.59s4.84-.39,7.49-0.54,4.94-.25,6.87-0.32c-0.9-2.77-1.7-5.48-2.42-8.12s-1.48-5.34-2.29-8.09c-0.31.01-.61,0.02-0.92,0.04q-14.865,9.765-29.74,19.53Q1999.365,3203.685,1999.05,3204.78Zm-37.95-138.13c0.23-2.36.45-4.82,0.66-7.36s0.32-4.72.32-6.54q-5.82,1.005-11.56,2.47t-11.5,3q-5.76,1.545-11.51,2.78t-11.38,2.38l-3.24.73a3.2,3.2,0,0,1-1.3.43,4.555,4.555,0,0,0-1.35.33q1.935,4.41,4.2,9.21t4.43,9.2c2.34-1.28,4.81-2.58,7.42-3.92s5.18-2.63,7.73-3.86,4.99-2.41,7.3-3.51,4.36-2.06,6.12-2.87q-2.535,8.145-4.75,16.53,8.895-6.225,17.79-12.46c0.01-.16.03-0.31,0.04-0.48C1960.67,3071.03,1960.87,3069.01,1961.1,3066.65Zm-62.07-23.56a1.774,1.774,0,0,0-.85,1.26,0.456,0.456,0,0,1,.06.31q2.19,2.565,4.27,5.47a59.21,59.21,0,0,0,4.32,5.33q2.79-2.19,5.95-5.16a64.306,64.306,0,0,1,6.34-5.27q1.71-1.275,3.76-3.13a45.933,45.933,0,0,1,4.25-3.38,13.757,13.757,0,0,1,4.26-2.09,3.69,3.69,0,0,1,3.65.86,1.539,1.539,0,0,1,.47,2.02,7.871,7.871,0,0,1-1.6,2.29,19.582,19.582,0,0,1-2.14,1.91c-0.73.54-1.15,0.85-1.27,0.91-1.04.87-2.14,1.71-3.29,2.53s-2.27,1.59-3.38,2.35q3.5,4.125,6.97,7.81,2.145-1.5,4.33-3.32c1.47-1.21,2.89-2.5,4.28-3.85a47.211,47.211,0,0,0,3.89-4.34,32.912,32.912,0,0,0,3.09-4.58,13.322,13.322,0,0,0,1.74-6.52,10.169,10.169,0,0,0-2.09-6.26,20.465,20.465,0,0,0-5.29-4.92,10.5,10.5,0,0,0-1.78-.94q-18.06,8.85-36.12,17.71c-0.56.37-1.11,0.77-1.67,1.2C1900.38,3041.92,1899.67,3042.51,1899.03,3043.09Zm-8.94-116.83c-0.57-1.08-1.17-2.18-1.84-3.3q-1.785-2.955-3.39-5.72-10.695,6.48-20.92,13.07-10.245,6.585-20.74,13.2c2.35,1.36,4.73,2.64,7.13,3.82q6.135-2.985,12.28-5.95C1867.95,2938.81,1878.11,2932.94,1890.09,2926.26ZM1834.17,2907a16.259,16.259,0,0,0-1.9,4.56,16.9,16.9,0,0,0-.49,5.05,32.271,32.271,0,0,0,.83,5.41,30.539,30.539,0,0,0,2.08,6.03,27.629,27.629,0,0,0,3.25,5.35,11.275,11.275,0,0,0,4.27,3.48,0.576,0.576,0,0,0,.58.02q10.1-5.475,20.18-10.67t20.25-10.95c-0.35-.79-0.74-1.68-1.16-2.66s-0.86-2-1.31-3.05-0.91-2.06-1.38-3.06-0.9-1.88-1.32-2.64q-4.47,2.43-8.93,4.91a87.4,87.4,0,0,1-8.99,4.37,1.763,1.763,0,0,1-.99-0.77c-0.54-.58-1.14-1.27-1.81-2.09l-2.01-2.43a14.829,14.829,0,0,0-1.64-1.78,18.474,18.474,0,0,0-5.55-3.3,13.214,13.214,0,0,0-6.13-1.05,10.088,10.088,0,0,0-4.55,1.79A11.946,11.946,0,0,0,1834.17,2907Zm-3.51-22.33c0.16,0.01.32,0.01,0.5,0.03a3.035,3.035,0,0,1,1.88.96,3.433,3.433,0,0,0,.7.87l0.1,0.18a9.861,9.861,0,0,1,.43.9c0.16,0.37.33,0.77,0.49,1.22,0.22,0.41.42,0.79,0.58,1.16a9.861,9.861,0,0,0,.43.9l0.52,0.97,8.09-3.94-0.84-1.13a3.775,3.775,0,0,1-.47-0.66c-0.12-.23-0.27-0.5-0.43-0.79a9.776,9.776,0,0,1-1.22-3.83,4.619,4.619,0,0,1,.72-3.18,20.546,20.546,0,0,1,1.39-1.61,11.042,11.042,0,0,1,1.72-1.44,5.432,5.432,0,0,1,1.94-.83,3.545,3.545,0,0,1,2.01.16,3.4,3.4,0,0,1,1.61,1.29,2.327,2.327,0,0,1,.17,1.67,7.719,7.719,0,0,1-.71,1.92,10.9,10.9,0,0,1-1.15,1.76c-0.43.54-.79,0.96-1.08,1.27l-0.64.69,0.51,0.74c0.04,0.06.31,0.43,0.82,1.1s1.11,1.46,1.76,2.4,1.34,1.87,2.04,2.81,1.34,1.72,1.89,2.33l0.79,0.82,0.91-.83a22.918,22.918,0,0,0,1.87-2.1,23.331,23.331,0,0,0,2.03-2.97,23.848,23.848,0,0,0,1.72-3.73,16.525,16.525,0,0,0,.95-4.44,13.4,13.4,0,0,0-.32-4.77,19.985,19.985,0,0,0-1.89-4.95,21.293,21.293,0,0,0-2.32-3.3q-6.54,4.365-13.08,8.72Q1837.775,2879.675,1830.66,2884.67Zm-5.67,16.52a13.739,13.739,0,0,0,3.44.57,17.088,17.088,0,0,0,3.1-.15,14.257,14.257,0,0,0,2.44-.53,9.224,9.224,0,0,0,1.55-.61l0.87-.47-4.35-9.7-0.93.17-1.2.31c-0.74.17-1.48,0.33-2.24,0.48a5.453,5.453,0,0,1-2.17-.02,3.523,3.523,0,0,1-1.04-.46,2.19,2.19,0,0,1-.99-0.99q-3.48,2.52-6.91,5.1A14.511,14.511,0,0,0,1824.99,2901.19Z"/>
  <path class="cls-1" d="M2547.14,3223.26q21.9,19.92,44.21,39.39c6.61,5.75,14.05,9.79,23.41,8.02,1.56-.3,3.33.45,5,0.69,6.8,0.96,9.74-2.7,7.24-9.13-2.31-5.91-6.85-10.22-11.03-14.75-3.44-3.72-3.57-7.28-.08-10.67,0.71-.7,1.38-0.34,2.16-0.19,1.95,0.4,3.05-.65,3.27-2.46,0.3-2.44-1.86-3-3.44-3.71a2.2,2.2,0,0,0-3.22,1.85c0.14,2.62-1.77,3.71-3.18,4.78-2.03,1.56-4.21,2.33-6.8-.32-4.76-4.89-10.06-9.27-15.25-13.73-2.06-1.77-3.23-2.86-.43-5.28,3.45-2.99,3.21-6.98,0-10.42-4.97-5.34-10.94-9.42-16.95-13.5-4.37-2.95-7.22-1.34-9.97,2.92-4.08-3.87-28.64-24.76-29.46-25.29s-0.75-.15-0.41-1.53,1.6-1.08,2.63-.96c2.68,0.33,4.32-1.09,5.08-3.39,0.86-2.6-.77-4.13-2.88-5.37-4.41-2.59-7.3-2.18-8.36,1.29a4.144,4.144,0,0,0,.66,4.09c0.59,0.72,1.42,1.47.51,2.34-1.01.98-1.91,0.16-2.7-.56-3.71-3.35-7.6-6.53-11.1-10.1-16.11-16.38-35.91-26.92-56.61-36.03-5.66-2.48-11.4-4.77-17.11-7.13-1.78-.74-3.55-1.34-4.62,1.09-0.8,1.83-1.89.62-2.88,0.17-5.09-2.3-9.95-5.12-15.93-7.14,2.05,3.74,5.38,4.71,8.06,6.38a72.044,72.044,0,0,0,10.46,5.52c2.71,1.13,3.87,3.43,5.52,5.41,1.48,1.78-.23,2.58-1.24,3.44q-12.045,10.365-24.16,20.65c-4.17,3.54-3.91,3.27-.21,7.16,2.91,3.07,5.61,3.39,9.43,2.15,8.24-2.67,16.65-4.82,24.94-7.31a6.334,6.334,0,0,1,5.46.79,155.05,155.05,0,0,0,16.59,8.23c7.88,3.22,14,8.67,20.12,14.28,11.07,10.14,22.17,20.23,33.42,30.16,2.79,2.46,16.83,15.48,19.85,18.17"/>
  <path class="cls-1" d="M2820.39,2599.43c0.07,1.81.59,3.74,0.15,5.43-5.49,21.43-2.32,41.44,10.27,59.59,27.67,39.88,85.94,40.62,114.91,1.64,0.79-1.06,1.59-2.12,2.69-3.6a55.1,55.1,0,0,1,6.77,3.84,4.689,4.689,0,0,1,1.53,3.6c-1.25,13.36,3.29,20.61,15.96,24.73v9.51c-7.17,1.87-14.56,3.12-21.46,5.71-29.55,11.12-47.07,39.06-45.35,71.56,1.54,29.11,23.16,55.18,52.29,63.06,4.41,1.19,4.41,1.19,4.15,4.85-24.45-3.76-45.16-14.5-61.45-33.1-19.29-22.02-27.79-47.83-24.93-77.09,0.47-4.92-.38-7.3-5.4-9.56-49.64-22.34-72.95-80.96-52.05-130C2819.11,2599.54,2819.75,2599.49,2820.39,2599.43Zm256.11,133.16c8.66,62.51-35.94,110.38-86.04,116.57-2.03-3.99,1.39-3.85,3.5-4.45,24.34-6.86,41.03-22.14,49.42-46.01,15.09-42.89-14.22-88.03-60.41-93.43-0.82-.1-1.65-0.17-2.81-0.29,0.01-3.28.01-6.54,0.01-10.2,8.55-2.49,14.58-7.81,16.19-17.22,0.2-1.14.62-2.47,0.25-3.45-2.73-7.23,2.32-9.21,7.52-11.35,3.43,3.9,6.68,8.08,10.43,11.75a70.421,70.421,0,0,0,85.61,10.42c27.29-16.16,40.44-48.89,32.13-79.9-0.58-2.19-2.46-4.97,1.86-5.6C3154.51,2645.95,3134.07,2710.11,3076.5,2732.59Zm-243.97-157.26c28.37-38.59,92.52-56.95,143.94-16.59,51.44-40.31,115.56-22.08,143.63,16.39-2.67,1.93-2.68,1.95-5.17-.56-14.05-14.19-31.06-21.53-50.98-21.58-50.2-.12-84.52,51.33-65.4,97.84,0.74,1.82,1.48,3.64,2.28,5.59-1.61.97-3.1,1.72-4.42,2.7-2.71,2.03-4.72,2.22-7.68-.36-6.42-5.61-15.61-5.85-22.83-1.47-6.77,4.12-6.77,4.12-13.87-1.17,5.84-12.56,8.9-25.73,7.04-39.69-3.91-29.3-19.54-49.8-47.37-59.42-27.45-9.48-52.08-2.93-73.21,16.95C2836.87,2575.48,2835.57,2578.77,2832.53,2575.33Z"/>
  <path class="cls-1" d="M3494.48,1995.44c-2.55,2.54-5.88,3.94-8.82,5.91-4.61,3.09-9.53,5.69-14.17,8.76-2.57,1.71-5.4,3.09-7.96,4.84s-5.17,3.44-7.81,4.97c-2.86,1.68-5.53,3.63-8.41,5.27-4.44,2.54-8.76,5.3-13.14,7.97-4.26,2.61-8.62,5.06-12.75,7.87-3.58,2.42-7.28,4.69-10.97,6.88-6.73,3.99-13.29,8.25-20.03,12.21-3.28,1.93-6.39,4.13-9.59,6.19-4.04,2.6-5.87,3.66-8.86-.29-2.66-3.53-5.06-7.24-7.59-10.87-5.6-8.03-10.45-16.14-17.78-22.64a157.379,157.379,0,0,0-26.31-18.71c-5.4-3.11-11.4-4.89-17.37-6.65a11.519,11.519,0,0,1-1.32-.55c6.43,1.43,12.82,2.97,18.59,6.34,3.29,1.93,6.24,4.43,9.77,5.96h0c2.72,1.95,5.52,3.8,8.14,5.86,5.46,4.3,10.83,8.7,16.24,13.05,0.61,0.49,1.59,1.21,2.04.48,0.94-1.53,2.63-2,3.77-3.21a23.934,23.934,0,0,1,5.08-4.59,29.567,29.567,0,0,0,5.85-4.92c1.58-1.54,3.63-2.65,4.87-4.67a11.393,11.393,0,0,1,3.4-3.13c2.45-1.6,3.92-4.08,6.18-5.84a61.4,61.4,0,0,0,4.85-4.48c1.48-1.47,2.94-2.96,4.38-4.5a36.693,36.693,0,0,1,3.31-2.8l-0.01.02c-0.09-.33-0.18-0.67-0.27-1,2.17-.16,2.36-2.46,3.65-3.39,1.91-1.38,3.21-3.63,5.69-4.22a0.739,0.739,0,0,0,.18-0.63,1.031,1.031,0,0,1,.77-1.43c0.23-.04.49,0.37,0.7-0.1,1.07-2.51,3.18-4.15,5.18-5.77,1.29-1.04,1.61-2.47,2.43-3.69,0.57-.86,1.84-1.13,2.05-2.33l-0.03-.01c0.13,0.68.69,0.49,0.75,0.16a6.462,6.462,0,0,1,2.89-3.86c2.49-1.53,3.37-4.29,5.7-5.99,2.09-1.53,3.31-4.4,5.59-6.11a1.289,1.289,0,0,0-.06-0.54l-0.01.02c0.83-.09.2-1.43,1.23-1.4,1.19,0.03,1.33-.71,1.08-1.66v0.03c0.44-.31,1.8.02,0.86-1.24,0.87-.21.56-1.64,1.64-1.59,0.17,0.01-.18.87,0.46,0.43a0.605,0.605,0,0,0,.17-0.94c-0.64-1.07,1.38-1.12,1-2.2,0.31,0.09.61,0.17,0.92,0.25v0.1c-0.01-.03-0.01-0.07-0.02-0.1a2.763,2.763,0,0,1-.41-1.22c0.39-.44.86-0.18,1.15,0.31,0.26-.68,1.64-0.94,1.18-1.67-0.76-1.2.06-1.9,0.4-2.78l-0.01-.01c0.35-.13.48,0.07,0.55,0.36l-0.09.48h0.14c-0.03-.16-0.05-0.32-0.07-0.48,1.31,0.34.92-.85,1.24-1.39a1.462,1.462,0,0,1,.19.16,0.929,0.929,0,0,1,.05-0.1c-0.08-.02-0.16-0.03-0.24-0.05a5.146,5.146,0,0,1,2.55-3.03c2.27,0.14,1.05-3.18,3.12-2.86a3.215,3.215,0,0,1-.41-0.86,1.856,1.856,0,0,1,.03-1.22c0.29-.39.54,0.03,0.74,0.32a2.017,2.017,0,0,0,.44-0.15c-0.7-1.46.91-1.62,1.41-2.38,0.59-.9.79-1.48-0.62-1.74,0.81-.53,1.43-0.78,2.17.06a3.157,3.157,0,0,1-.11-1.13,3.987,3.987,0,0,0,2.05-4.71Q3475.275,1962.155,3494.48,1995.44Zm-51.06-45.76a2.094,2.094,0,0,0,.08-0.23,0.146,0.146,0,0,0-.12-0.04,0.794,0.794,0,0,0-.18.14A2.529,2.529,0,0,1,3443.42,1949.68Zm-403.21,236.2c-0.37-8.17-.12-16.32,1.88-24.27,1.42-5.65,2.84-11.36,5.65-16.56a4.14,4.14,0,0,1,.55-0.64c0.29,5.51-2.55,10.24-4.03,15.27a54.578,54.578,0,0,0-1.4,23.15c0.49,3.66-.66,7.4-0.09,11.19,2.19,14.61,6.73,28.02,13.15,41.51,1.72,3.62,2.75,7.57,4.15,11.35a36.372,36.372,0,0,0,1.81,3.97c0.7,1.34-1.65,2.98-2.86,3.12-3.09.35-5.46,2.23-8.07,3.6-3.5,1.83-7,3.67-10.45,5.59-3.97,2.22-7.84,4.61-11.83,6.78-4.74,2.57-9.58,4.93-14.33,7.47-3.67,1.96-7.27,4.07-10.9,6.09q-7.755,4.32-15.53,8.61c-6.65,3.67-13.5,6.93-20,10.89-3.43,2.09-7.18,3.66-10.73,5.57-2.78,1.48-5.46,3.14-8.21,4.67-1.95,1.1-3.91,2.18-5.92,3.15a1.89,1.89,0,0,0-1.27,1.59l-38.43-66.57c1.59,2.02,3.43-1.99,5.1.37-0.36-1.14.34-1.47,1.07-1.88,0.06,0.58-.47,1.26.62,1.44,1.19,0.2,2.3-1.48,3.48-.09a0.61,0.61,0,0,0,.27-0.26c-0.06-.32-0.51-0.81.16-0.82a2.266,2.266,0,0,1,1.17.71,2.657,2.657,0,0,1,.45.63c0.81-1.88,3.26.73,3.98-1.45,0.26-.78,1.34.7,1.52-0.49l-0.01.02c0.98,0.6,1.99-1.15,2.79-.14,0.86,1.08,1,.11,1.4-0.26l-0.02-.01c0.76,0.83.9-.21,1.27-0.45,0.27-.18.6-0.65,0.7-0.08,0.25,1.35,1.12,1.08,1.99.95a1.546,1.546,0,0,0-.07.23,0.226,0.226,0,0,0,.04.09c0.01-.11.01-0.22,0.01-0.33,0.74-.15.18-0.88,0.53-1.2,0.22-.2.58-0.92,0.73-0.33a0.666,0.666,0,0,0,1.24.33c0.82-1.28,2.59,1.5,3.13-.75a1.321,1.321,0,0,1,.65.09,1.88,1.88,0,0,0,2.48-.51c0.23-.22.46-0.55,0.69-0.34,1.3,1.2,2.8.2,3.95-.01,1.88-.35,3.85-0.92,5.71-1.29,2.02-.4,4.01-1.34,6.06-1.23,1.83,0.1,3.13-1.17,4.81-1.25l0.01-.02c1.58,0.4,2.91-.6,4.4-0.78,0.72-.09,1.6-0.92,2.06-0.7,1.07,0.54,2.01-.35,3.22.13,1.09,0.43,2.99-.66,4.28-1.14,2.17-.8,4.71-0.39,6.6-1.97,0.23-.19.87-0.66,0.73,0.38-0.04.29,0.69,0.36,0.81,0.1,0.89-1.86,3.04-1.1,4.43-2.19,1.22-.95,3.27-0.84,4.95-1.19l-0.02-.01c1.38-.28,2.73-0.64,4.12-0.87,1.06-.18,2.6.06,3.21-0.67,0.88-1.05,1.24-.59,1.93.09-0.32-2.27,1.03-.28,1.33-0.61,1.52-1.73,3.97-1.07,5.69-2.29a5.134,5.134,0,0,1,2.07-.83,74.492,74.492,0,0,0,7.81-2.15c2.02-.59,4.09-1.26,6.13-1.85,2.14-.63,4.18-1.49,6.36-2.04,3.54-.88,6.89-2.55,10.32-3.88h-0.01c4.71-2.22,5.76,1.46,7.19,4.59C3044.84,2211.99,3042.79,2198.89,3040.21,2185.88Zm-67.94,55.02-0.08.03,0.06,0.05Zm272.31-231.37c1.26,0.31,2.39-.34,3.59-0.49l-0.41.35c-1.15,1.69-3.2,4.69-4.75,5.38-4.02,1.78-6.14-5.25-8.4-7.07-1.81-1.46-3.52-3.07-5.26-4.62-1.68-1.5-3.75-2.57-5.02-4.52v0.01c-0.58-1.23-2.32-.83-2.89-2.07,0.1-.05.21-0.11,0.31-0.16a0.572,0.572,0,0,0-.07-0.08l-0.22.25c-1.97-1.23-3.98-2.4-5.88-3.73-0.65-.46-2.14-0.34-1.91-1.31,0.36-1.46,1.88-2.24,2.96-3.24a10.349,10.349,0,0,0,1.83-1.54c0.33-.52.81-1.69-0.71-1.57-0.4.03-2.41,0.93-2.27,0.63,0.51-1.21-.94-1.65-0.97-2.74a1.1,1.1,0,0,0-1.84-.66h0.01l-0.3-.51-0.01.02c0.06-.78.89-0.34,1.28-0.7-0.78-1.15-2.52,1.13-2.86-1.09-0.02,1.42-.49,1.94-1.74,1.31,0.31-.08.73-0.02,0.77-0.5a0.4,0.4,0,0,0-.26-0.26,0.661,0.661,0,0,0-.49.77c-0.12.07-.25,0.15-0.37,0.22-0.1-1.49-2.18-1.94-1.93-3.63V1978c0.28-1.98-1.3-1.21-2.18-1.47v0.03c0.77-1.24-1.35-1.97-.62-3.24-0.16.27-.32,0.55-0.48,0.82a3.983,3.983,0,0,1-.75-0.85c-0.31-.62.3-0.38,0.54-0.5,1.1-.53.22-0.8-0.15-1.14l-0.01.03a1.418,1.418,0,0,1,.69-0.15c0.67,0.21,1.33.74,2.01,0.24a0.654,0.654,0,0,0-.17-1.01c-0.69-.6-0.51-2.3-2.23-1.68-0.28.11-.85-0.56-1.29-0.87,0.31-.82.89-1.61,0.24-2.52l0.51-.3c0.18,0.2.37,0.4,0.56,0.6a3.893,3.893,0,0,1,.09-0.61c0.59-1.7-.72-2.99-0.94-4.51,0.18,0.12.37,0.23,0.55,0.35l0.02-.06c-0.18-.12-0.36-0.24-0.54-0.37,0.01-.37.9-0.62,0.43-0.84-1.31-.62-1.07,1.33-2.2,1.53a2.44,2.44,0,0,0-.92-2.84c-0.45-1.47-2.2-1.77-2.77-3.13,0.26,0.03.58,0.19,0.6-.27a0.751,0.751,0,0,0-.23-0.26c-0.11.18-.23,0.37-0.35,0.55-0.77-.7-1.52-1.43-2.33-2.09-0.73-.6-1.67-1.01-1.2-2.28,0.08-.22-0.09-0.96-0.59-0.8-1.32.45-.95-0.68-1.24-1.2l-0.01.03a2.431,2.431,0,0,0,.25-1.07c-1.75-1.81-.63-1.74.22-2.59h-0.01c0.78-.09.36-0.76,0.51-1.14,0.11-.25-0.83-0.47-0.19-0.82,0.36-.19.55-3.09,0.74-2.87,0.87,1.05,3.67.3,4.46-.26,0.84-.6.24-0.99,0.87-0.5-0.51-1.99.23-1.06-1.5-2.6-0.47-.42-0.39-1.42-1-1.73-3.1-1.57-4.41-.43-7.7-1.33a24.625,24.625,0,0,0-7.19-.47,33.686,33.686,0,0,0-10.66,1.54c-1.28.42-2.09,0.07-1.53,0.82a35.984,35.984,0,0,1,6.29,15.28c0.64,3.35,3.14,6.3,4.08,9.64,1.1,3.9.22,7.85-1.7,11.45-0.2.38-3.59,2.17-4.23,1.47a17.739,17.739,0,0,1-3.13-5.05c-1.02-4.49.52-7.73-1.17-12.02-0.7-1.77-2.59-4.35-3.5-6.06a33.4,33.4,0,0,0-2-3.47c-1.1-1.65-3.27-2.86-4.73-4.19-0.8-.74-2.02-1.08-2.43-2.23-0.3-.85-0.89-0.5-1.36-0.05h0.02c-0.25-2.27-1.1-2.62-2.18-3.96a4.264,4.264,0,0,0-.87-1.03,36.007,36.007,0,0,0-5.46-3.68c-0.26-.12,1.41-1.65,1.25-1.99l3.54-2.04c4.59,1.43,7.74,4.83,11.01,8.04,3.2,3.15,5.44,7.03,7.94,10.71,0.29,0.43.63,1.07,1.19,0.88a1.242,1.242,0,0,0,1.12-.9c0.13-1.14.56-2.29-.02-3.42-3.84-7.46-8.91-13.82-16.18-18.23q13.665-7.89,27.32-15.78c0.41,0.32.51,0.11,0.51-.29,0.08-.05.16-0.1,0.25-0.15,0.4,1.72,2.77,1.25,3.16,2.65,0.44,1.61,1.09,1.91,2.46,1.21h-0.03c0.05,0.09.1,0.17,0.15,0.26v-0.02c-0.19.17-.73,0.25-0.44,0.55,0.69,0.71,1.72.98,2.33,1.92a1.793,1.793,0,0,0,1.15,1.22c1.01,0.25,1.94-.91,2.8.05l0.01-.02c-0.43.7-.44,0.73,0.13,0.77,1.11,0.08.98,0.67,0.58,1.38,2.01-.62,6.38,1.14,8.5,3.43,0.04-1.29,1.47-1.26,1.94-2.13,0.16,0.33.33,0.65,0.49,0.98l0.01-.03c-0.35.08-.87-0.03-0.82,0.57a0.754,0.754,0,0,0,.4.56c1.25,0.23.46,0.41,1.49-.07-0.67-1.13.64-2.09,0.26-3.22a1.329,1.329,0,0,1,.77-1.93c0.58-.22.32-0.68-0.02-0.62-0.85.16-1.18-.63-2.19-0.67,1.13-.63,1.92-1.23,1.59-2.26a4.876,4.876,0,0,1,.14-3.07,0.354,0.354,0,0,0,.11.03,0.412,0.412,0,0,0,.08-0.03,1.355,1.355,0,0,0-.2.02c0.48-1.02-1.38-1.8-.29-2.88a0.17,0.17,0,0,0,0,.1,1.063,1.063,0,0,0,.15.15l-0.01.02c-5.75,6.26-7.41,3.59-7.46,3.5,0.04-.21-1.04-1.53-1-1.73-1.65.43,6.39-3.99,5.27-4.51a0.988,0.988,0,0,0-1.54.38h0.02c-0.68-.45-0.12-1.12-0.38-1.68,0.59-.05,1.11.9,1.55,0.15a1.51,1.51,0,0,0-.19-1.43c-0.5-.41-0.8.17-1,0.62v-0.03c-0.92.39-.47-0.05-0.44-0.55,0.04-.7.89-1.83-0.6-2.06,0.37-.82,1.09.19,1.48-0.09,0.28-1.38-1.94-1.02-1.4-2.46,8.34-4.82,18.42-10.64,26.77-15.46-0.29,2.8.3,5.56,0.49,8.34,0.4,6.01.94,12.01,1.33,18.01a379.861,379.861,0,0,1,.09,42.55c-0.22,4.78-.39,4.74-5.02,3.31-1.97-.6-3.35-0.07-3.87,2.16a4.337,4.337,0,0,0,.51,3.08c1.24,2.38,1.47,5.05,2.33,7.53,0.87,2.5,4.09,4.45,2.3,7.75a0.359,0.359,0,0,0,.43.53c1.1-.43.57,0.44,0.54,0.72a1.424,1.424,0,0,0,.8,1.37c0.89,0.73,1.87,1.99.66,2.82-1.08.74-2.57,0.76-3.43,2.14-0.65,1.05-2.39.3-3.21,1.38a1.21,1.21,0,0,0-.19.2c-0.69,1.21-2.23,2.46.14,3.6-1.28.61-1.12,1.88-1.27,3.06,0.83-1.63,2.81-.82,3.85-1.91v0.03c1.01-.29,2.03-0.59,3.05-0.85a1.992,1.992,0,0,1,.68.05,1.752,1.752,0,0,1-.21.78c-1.24,1.07-2.02,1.64-.05,3.2,3.11,2.47,4.27,6.79,7.82,9.01,0.64,0.41.42,0.96,0.02,1.49-0.76,1-.4,1.64.77,1.51,2.66-.3,3.47,1.48,4.24,3.46C3243.47,2008.63,3243.41,2009.66,3244.58,2009.53Zm-67.95-51.65c0.01,0.03-.32-0.56-0.66-1.14a1.066,1.066,0,0,0-1.15-.44,0.769,0.769,0,0,0-.76.74c-0.43,3.46-.03,6.74,2.2,9.6,0.56,0.71.88,0.65,1.34-.14C3179.23,1963.67,3178.62,1961.05,3176.63,1957.88Zm23.86-.3a5.157,5.157,0,0,0,.14-0.68,0.82,0.82,0,0,0-.31-0.14c-0.08.25-.17,0.51-0.26,0.76C3200.18,1957.54,3200.3,1957.56,3200.49,1957.58Zm5.69-35.28c0.07,0.05.14,0.09,0.21,0.14a1.889,1.889,0,0,1,.11-0.25,0.754,0.754,0,0,0-.24-0.08A0.427,0.427,0,0,0,3206.18,1922.3Zm19.66,45.4c0.07-.02.11-0.03,0.16-0.04a0.572,0.572,0,0,0-.08-0.07C3225.9,1967.62,3225.88,1967.65,3225.84,1967.7Zm37.91,303.4c0.24-.22.59-0.47,0.2-0.79-0.66-.53-0.87.51-1.41,0.46h0.02c-0.24-.1-0.47-0.19-0.71-0.29a1.981,1.981,0,0,1,1.65-1.15,2.108,2.108,0,0,1,2.18,1.44c0.2,0.72.71,0.19,1.08,0.24,0.38,0.2.2,0.94,0.84,0.9,0.88,0.76.44-.8,1.01-0.58,0.45,0.29.92,0.77,1.3-.08,0.03-.13.07-0.25,0.11-0.37-0.14-.05-0.27-0.09-0.4-0.13h0c-0.13-.05-0.26-0.1-0.39-0.14-0.24-.2-0.48-0.4-0.72-0.59h0c1.55-.6.02-1.93,0.64-2.84,0.23-.33-0.54-0.3-0.87-0.42l0.03-.02c0.3-.22.6-0.44,0.9-0.67h-0.26c-0.07-.3-0.13-0.59-0.19-0.89,0.27,0.07.53,0.14,0.8,0.2,0.04,0.01.08,0.03,0.13,0.04a0.929,0.929,0,0,0-.13-0.04c0.27-.46.51-0.38,0.87-0.04,0.56,0.54.13,0.9-.14,1.31a2.013,2.013,0,0,1-.25.14,2.564,2.564,0,0,0-.44,1.04,13.173,13.173,0,0,0,.48,2.31,0.9,0.9,0,0,0,.63-0.01c0.82-.53-0.05-1.3.21-2,0.11-.29-0.57-0.88-0.89-1.34,0.09-.05.18-0.1,0.26-0.15,0.78,0.5,1.51,1.17,2.55.68-1.63-1.64.44-2.44,0.81-3.63v0.01c1.48,0.83,2.68-.21,3.41-1.03,0.82-.93,3.32-1.7,1.27-3.73-0.16-.4-0.33-0.79-0.47-1.2a1.142,1.142,0,0,1,.57-1.21,1.094,1.094,0,0,1,.56.18c-0.34,1.38.67,1.04,1.36,1.08-0.2.83,0.31,1.14,1.18,1.47-0.5-.62-0.85-1.04-1.2-1.47a1.49,1.49,0,0,0-.21-1.45c0.54-.36.97,0.55,1.47,0.06,0.18,0.42.3,0.99,0.96,0.71a0.815,0.815,0,0,0,.46-0.59c-0.11-.51-0.5-0.21-0.79-0.15h0.02l-0.66.06c-0.04-.52-1.33-0.69-0.55-1.32,1.17-.92,1.37-2.85,3.09-3.06,0.75-.09.02,0.94,0.49,1.23,2.41-.9,1.18-2.9,1.36-4.47,0.13,0.04.27,0.07,0.41,0.11,0.77,0.29.13,1.03,0.51,1.68,0.35-.85,1.74-0.94,1.26-1.92-0.31-.65-1.18,0-1.78.25-0.14-.03-0.27-0.07-0.41-0.11q2.085-1.365,4.18-2.74c-0.06.12-.11,0.23-0.17,0.34,0.04,0.01.08,0.02,0.11,0.03,0.01-.12.02-0.25,0.03-0.37,0.54,0.14,1.08.29,1.62,0.44l-0.03-.01c0.79,0.11,1.69.36,0.88-1a1.03,1.03,0,0,1,.36-0.81c1.27-.06,1.55-2.36,2.87-1.55,0.92,0.55,1.26,1.16,1.71-.25a11.1,11.1,0,0,1,1.15.1c0.5-.01,1.24.8,1.45-0.1,0.15-.65-0.68-0.96-1.31-1.09-0.41-.09-0.84-0.11-1.73-0.23,1.25-.36,2.03-0.69,2.9-0.19-0.05-.44-0.09-0.86-0.14-1.28l0.09,0.08-0.09-.06a3.794,3.794,0,0,0-.22-1.29c-0.16-.31-0.67-0.49-0.47-0.92,0.23-.48.57,0.02,0.86,0.03,0.65,0.01.68-.36,0.48-0.85,0.15-.09.3-0.19,0.46-0.28,0.05,0.05.1,0.11,0.16,0.17a2.951,2.951,0,0,0,.29,1.3c0.83,0.23.32-.93,1.56-1.26-1.55,1.25,1.74,2.47-.79,3.44,1.9,0.95,1.93.94,2.23-.58,0.13,0.02.25,0.05,0.38,0.07v-0.25c-0.12.04-.25,0.08-0.37,0.12,0.27-.78-1.59-2.13.64-2.37-0.36,1.42.57,1.33,1.56,1.14-0.52-.38-1.05-0.76-1.57-1.14a2.842,2.842,0,0,1,.72.06c1.35,0.45,1.95.58,1.47-1.37-0.38-1.52-1.4-2.3-2.18-3.38,0.49-.61,1.3-0.95,1.47-1.85a2.159,2.159,0,0,1,.54-0.74c0.12,0.28.24,0.57,0.36,0.86-0.24.31-.84,0.41-0.64,1.05a0.992,0.992,0,0,0,.63-1.06,5.62,5.62,0,0,1,3.57-2.33c-0.66-.47-1.18-0.84-2.02-1.45,1.01,0.05,1.93.29,1.28-1.59,1.29,2.07,1.8,1.01,2.37.33,0.06,0.06.12,0.12,0.18,0.19-0.07-.06-0.13-0.12-0.19-0.18,0.65-1.42-.48-0.35-0.71-0.46-0.35-.17-1.03.35-1.15-0.16-0.22-.95.72-0.08,0.82-0.38,0.36-1.08,2.76-.79,1.88-2.88-0.11-.26,1.86-1.38,2.88-2.11-0.3-.22-0.74-0.56-1.19-0.89,2.73-.33,2.19-2.82,2.97-4.35,0.26-.5.41-1.09,0.65-1.65,0.8-1.78,2.78-3.33,1.43-5.67a1.294,1.294,0,0,0-.29-0.47c-0.39-.24-1.1.96-1.16-0.07-0.04-.75,1.08-0.38,1.46-0.57-0.74-2.39-1.62-4.72-2.16-7.12a32.813,32.813,0,0,0-2.19-5.53c-2.87-6.79-5.66-13.61-8.84-20.28-3.6-7.53-6.7-15.3-10.35-22.8-3.08-6.33-6.75-12.36-9.96-18.63-4.39-8.59-8.57-17.28-12.87-25.91-2.21-4.43-4.9-8.38-9.68-10.51-4.5-2-5.8-6.02-6.5-10.55a50.747,50.747,0,0,0-1.49-6.73c-0.63-2.07.01-4.5-.31-6.71-0.57-3.95-.76-7.97-2.3-11.78a9.608,9.608,0,0,0-1.57-2.76,0.713,0.713,0,0,1-.19-0.53c0.56-2.18.56-2.18-1.69-3.63a7.86,7.86,0,0,1,5.42,4.31,68.214,68.214,0,0,1,3.14,6.93c0.64,1.58.13,3.18,0.79,4.75a39.469,39.469,0,0,1,1.87,6.54,54.646,54.646,0,0,0,1.43,5.77c0.8,2.32.41,5.14,2.72,6.98,0.86,0.68,1.17,2.05,1.73,3.11l-0.12.03c0.04-.02.08-0.03,0.13-0.05-0.36,2.59,2,3.62,3.18,5.27,4.04,5.65,6.29,12.25,9.94,18.1,0.85,1.36,2.01,2.48,2.43,4.17a1.315,1.315,0,0,0,2.32.37c0.68-.7,1.15-0.2,1.61.45a96.315,96.315,0,0,1,7.98,13.68c3.99,8.33,8.18,16.56,12.12,24.9,2.92,6.2,5.62,12.5,8.37,18.77,4.37,9.97,8.71,19.95,12.71,30.09,2.45,6.19,4.87,12.39,6.92,18.71,1.14,3.5,2.82,6.89,3.05,10.67q-52.995,30.6-105.98,61.2c-2.67.79-3.21-.51-2.64-2.77,0.11-.47-1.08-1.53.55-1.42a2.25,2.25,0,0,0,.08.24c-0.19.58,0.07,0.99,0.65,1.65,0.06-.78.09-1.22,0.12-1.67l0.1-.06,0.1-.06c0.5,0.8.95,0.65,1.74,0.21,0.98-.55-0.06-1.5.65-1.96v-0.01c1.55,0.98,3.19-1.32,4.95.3-1.01-1.29-.8-2.07.55-2.46-0.04.42-.39,1.37-0.18,1.15,0.92-.97,4.07.37,2.77-2.63,1.11-.08,3.08,1.82,2.42-1.26-0.04-.18.04-1.68,1.23-0.61a1.164,1.164,0,0,0,2.02-.42c0.09-.03.17-0.06,0.25-0.09a1.132,1.132,0,0,0-.1-0.13c-0.04.08-.08,0.15-0.13,0.23-1.21-.27-1.57-0.87-0.77-1.94,0.04,0.02.07,0.04,0.11,0.06a0.564,0.564,0,0,1-.12-0.04c-0.47-.28-1.41.01-1.26-1.04l1.08-.42a9.838,9.838,0,0,0,1.15,1.09,0.861,0.861,0,0,0,1.17.19,1.834,1.834,0,0,0,.07-0.93c0.05-.64-0.31-0.72-0.82-0.64a0.5,0.5,0,0,1-.63-0.44H3247c2.23,0.96,3.95-1.21,6.01-.74,0.14-.76-1.81-0.27-0.51-1.37l-0.02-.01a5.61,5.61,0,0,0,1.21-.72c0.65-.63-0.19-1.95.73-2.3,1.15-.42.57,1.74,1.9,1.48a1.876,1.876,0,0,1,1.18-2.37,2.238,2.238,0,0,0,1.22-1.68h-0.01c0.73-.39,1.59-0.67,1.38-1.78-0.17-.82-1.08-0.73-1.79-1.55a17.076,17.076,0,0,1,3.49,1.01c1.04,0.56,1.58.47,1.97-.62Zm38.4-31.6,0.02-.06-0.41-.09v0.03Zm-16.85-119.17c0.26,0.41.5,0.28,0.65,0.1a2.352,2.352,0,0,0,.24-0.61,1.833,1.833,0,0,0-.77-0.02A0.991,0.991,0,0,0,3285.3,2120.33Zm-30.99,158.44a0.461,0.461,0,0,0,.21.12,0.565,0.565,0,0,0,.17-0.2c-0.09-.06-0.17-0.12-0.26-0.18C3254.39,2278.59,3254.35,2278.68,3254.31,2278.77Zm-212.13-262.43c0.88,0.81.22,1.88,0.05,2.57-0.35,1.38.32,2.05,1.06,2.85-0.04,2.42,1.29,4.36,2.28,6.41-0.7.64,0.09,0.94,0.37,1.21,0.49,0.47.56-.19,0.78-0.42-0.01.33-.02,0.67-0.03,1,0.04,0.09.07,0.18,0.1,0.27a1.7,1.7,0,0,1,.19.19c-0.05.46-.65,1.1,0.39,1.22a1.892,1.892,0,0,0,.05.23l0.3,0.51h0c0.11,0.17.23,0.34,0.34,0.51a0.7,0.7,0,0,0,.11.21c0.17,0.13.34,0.26,0.51,0.4-0.3.19-.6,0.39-0.9,0.58a14.057,14.057,0,0,0-.61,1.31c-0.17.45-.61,1.2,0.53,0.8a1.409,1.409,0,0,0,.96-1.61v-0.01c0.14,0.03.27,0.06,0.4,0.08,0.05,0.08.09,0.15,0.14,0.22a12.842,12.842,0,0,1,.26,3.66c0,0.91-.1,2.24,1.35,2.55a3.865,3.865,0,0,1,.76,3.26l0.01-.02c-0.16.26-.32,0.52-0.47,0.78a4.29,4.29,0,0,0,1.8-.06c1.53-.87,1.84-0.19,1.77,1.19h0.02c-0.12.12-.24,0.25-0.36,0.37,1.51,0.57,1.27,2.86,3.07,3.14h-0.01c0.62,0.87.93,1.97,1.86,2.64a0.912,0.912,0,0,1,.26.44c-2.32,1.82.13,2,.93,2.74a1.8,1.8,0,0,1,.3,1.49c0.05,0.89-.32,2.14.54,2.53,1.46,0.65,1.15,1.88,1.46,2.94v-0.02c-0.36.58-1.52,1.04-.28,1.86h-0.02c0.08,0.41-.75,1.01-0.04,1.15,0.8,0.17.73-.8,0.96-1.34h-0.02c0,1.42,1.75,2.9-.16,4.25,0.98,0.94.65,2.56,1.51,3.38a1.618,1.618,0,0,1,.42,1.84l0.01-.03a1.072,1.072,0,0,0,0,1.26c1.09-.42,1.46,1.39,2.33.8,3.31-2.27,7.28-3.48,10.2-6.36a1.422,1.422,0,0,1,1.44-.45c0.56,0.21.47,0.83,0.45,1.39-0.13,4.06.25,8.11,0.03,12.18a8.242,8.242,0,0,0,.43,4.09c0.65,1.39-1.49,1.96-1.68,3.36-0.1.69-.9,1.28-1.38,1.91-0.1-.17-0.2-0.35-0.3-0.52h0c-0.05-.09-0.09-0.18-0.14-0.27h0c0.05-.64.06-1.37-0.65-1.57a0.907,0.907,0,0,0-.9.92,12.262,12.262,0,0,0,.05,2.18l0.01,0.01c-0.03.14-.06,0.27-0.09,0.4h0c-0.17.09-.33,0.17-0.5,0.25-0.19-.19-0.01-0.82-0.58-0.55a0.67,0.67,0,0,0-.26.59c0.2,0.46.53,0.29,0.82,0.05,0.19,0.88-.55,1.25-0.97,1.8a44.862,44.862,0,0,0-4.22,7.21c-0.16-.09-0.31-0.17-0.46-0.26-0.01.04-.04,0.12-0.04,0.12,0.16,0.07.32,0.14,0.48,0.2,0.11,0.6-1.09,1.5.4,1.78,0.3,0.33-1.2.41-.11,0.83,0.28,0.1.79-.13,0.72,0.42a0.975,0.975,0,0,1-.67.37c-1.07.23-2.7,0.27-.31,1.32a3.3,3.3,0,0,1,.56,1.13c-1.17-1.04-2.08-.47-3.16-0.23,2.41,0.26.38,3.16,2.35,3.72-0.33.16-.73,0.34-1.14,0.53a0.277,0.277,0,0,0-.09.01c0.03-.01.07-0.02,0.1-0.03a34.139,34.139,0,0,0-1.42,5.54c-0.23,2.44-2.08,3.63-3.39,5.24-2.65,3.27-5.31,6.52-7.96,9.78,2.21-3.94,5.46-7.24,5.14-12.49-0.27-4.38.34-8.87,0.67-13.29,0.13-1.81-.55-3.45-0.26-5.21a16.343,16.343,0,0,0-.62-7.34,24.552,24.552,0,0,0-4.15-8.09,13.3,13.3,0,0,1-2.75-4.71,9.507,9.507,0,0,0-.77-2.31,83.137,83.137,0,0,1-4.09-8.04c-1.91-4.53-3.41-9.25-6.58-13.14h0.02a1.272,1.272,0,0,0-.16-0.55c-3.79-3.96-5-9.02-4.93-14.13,0.06-4.86-.92-9.65-0.52-14.5a49.51,49.51,0,0,1,2.95-12.43c1.06-3,2.99-5.52,4.48-8.28,0.58-1.07.23-2.61,1.44-3.21a2.036,2.036,0,0,0,1.33-1.38c0.21-1.71,1.78-2.2,2.69-3.27,0.27-.32.67-0.42,0.77,0.05,0.5,2.16,2.44,3.37,3.36,5.3,1.24,2.6,2.64,5.2,5.57,6.46a2.525,2.525,0,0,0,2.05-.24,0.723,0.723,0,0,0,.22-0.56c-1.26-1.07-1.19-2.72-1.73-4.08a49.554,49.554,0,0,1-3.43-15.11c-0.18-2.82.52-5.69-.39-8.47,0.68-.39,1.35-0.78,2.03-1.17a1.177,1.177,0,0,1,.18,1.22,60.258,60.258,0,0,0,.83,15.65c0.55,3.29,2.04,6.43,3.22,9.6,0.59,1.58,1.54,3.12,1.11,4.85-0.27,1.08-1.42,1.19-2.38.87a10.166,10.166,0,0,1-6.12-5.32,37.685,37.685,0,0,0-2.13-3.62,1.187,1.187,0,0,0-1.98-.28c-3.08,3.29-6.17,6.58-7.98,10.81l-0.05-.02Zm4.06,17.57c-0.13-.11-0.26-0.22-0.4-0.33a1.091,1.091,0,0,0-.06.11c0.15,0.07.31,0.14,0.46,0.21,0.04,0.09.08,0.17,0.11,0.25-0.03.21-.06,0.42-0.08,0.64a1.331,1.331,0,0,0,.23-0.06,5.168,5.168,0,0,0-.07-0.55c0.22-.13.59-0.16,0.37-0.58C3046.62,2033.71,3046.43,2033.81,3046.24,2033.91Zm1.12-.97,0.01-.03a0.915,0.915,0,0,0-1.12-.61C3046.75,2032.59,3047.05,2032.76,3047.36,2032.94Zm0.34,3.77a1.506,1.506,0,0,0-.09.43,6.078,6.078,0,0,0,.64.25,1.842,1.842,0,0,0,.13-0.38A5.677,5.677,0,0,0,3047.7,2036.71Zm-1.74-5.19v-0.11a0.145,0.145,0,0,0-.1.01,0.2,0.2,0,0,0,0,.11C3045.89,2031.53,3045.93,2031.52,3045.96,2031.52Zm-16.87,12.96c-0.17,1.49,1.6,1.47,2.08,2.68,0.47,1.15,1.24,2.11,1.31,3.51a6.706,6.706,0,0,0,1.17,2.91,10.3,10.3,0,0,1,1.67,7.93c-0.31,1.43-1.43,1.46-2.36,1-4.95-2.48-9.6-5.51-14.41-8.21-2.51-1.4-5.15-2.7-7.57-4.2-4.65-2.88-9.91-4.6-14.36-7.76-4.31-3.07-9.31-4.84-13.79-7.58-2.58-1.59-5.24-3.05-7.87-4.57q27.45-15.855,54.89-31.7c1.54,0.63.17,1.06-.16,1.41-0.74.78-.75,0.71,0.01,1.6a1.688,1.688,0,0,1-.17,1c-1.8-.14-0.86,1.28-1.13,1.98a45.06,45.06,0,0,1-2.29,5.9c-1.37,2.44-1.47,5.49-3.73,7.52-0.33.28,0.27,1.53-.26,2.28l-0.47-.09v0.13c0.16-.02.32-0.05,0.47-0.08-1.48,2.27-1.44,4.84-1.31,7.37,0.06,1.37-.26,2.93.7,4.1,0.7,0.85.34,1.82,0.57,2.7,0.45,1.76,2.04,2.47,2.8,3.87,1.21,2.23,2.27,4.56,4.2,6.32Zm77.41,94.36c1.25,2.68,2.2,5.5,3.37,8.19,1.43,3.29,4.61,5.38,7.21,7.73a64.336,64.336,0,0,1,8.18,9.06c1.95,2.58,4.38,4.73,6.48,7.14a23.489,23.489,0,0,1,3.94,5.42c2.04,4.46,4.98,8.34,7.95,12.22,1.32,1.73,2.13,3.87,3.47,5.67,0.68,0.92-.51,1.96-0.11,3.2a53.087,53.087,0,0,0,7.85,14.53c5.49,7.66,10.91,15.38,16.55,22.93,7.23,9.68,14.8,19.11,22.57,28.37,4.98,5.93,9.76,12.06,15.07,17.68,4,4.23,7.81,8.71,12.38,12.42a63.392,63.392,0,0,1,4.95,4.62c1.14,1.15,2.55.04,3.72,0.62-1.1.63-2.19,1.27-3.29,1.9a245.99,245.99,0,0,1-19.17-19.85c-6.84-7.93-13.66-15.87-20.18-24.05-7.25-9.11-14.26-18.42-21.21-27.78-6.25-8.42-12.33-16.97-18.37-25.54-4.31-6.13-8.38-12.42-12.64-18.58a51.647,51.647,0,0,1-3.85-6.27l-0.03-.12c0.02,0.04.03,0.08,0.05,0.12-0.92-.55-1.14-1.61-1.73-2.4v0.02c-0.51-1.75-2.18-2.59-3.16-4.02-3.79-5.52-7.85-10.85-12-16.1-3.35-4.23-6.71-8.38-7.91-13.82A6.994,6.994,0,0,1,3106.5,2138.84Zm-0.16,81.11a32.927,32.927,0,0,0,8.28-3.16,49.634,49.634,0,0,0,8.95-6.49c0.92-.82,1.38-2.13,2.18-3.1,0.58-.72.91-2.04,2.43-1.54-0.28-.26-0.56-0.52-0.98-0.89,0.68-.14,1.18-0.22,1.67-0.37a0.7,0.7,0,0,0,.34-0.42,0.488,0.488,0,0,0-.21-0.31c-0.32-.28-0.99.98-0.96-0.09,0.01-.56.72-1.18,0.79-1.92,1.73,0.39.49-.81,0.56-1.19,0.12-.56-0.37-1.19.4-1.65,1.04-.62.64,0.84,1.32,0.84,0.19-.82-1-1.6-0.15-2.48-0.3.17-.6,0.35-0.98,0.57-0.2-1.53,1.5-2.11,1.43-3.45l-0.01.02c0.58,0.02,1.1.41,1.36-.74,0.33-1.45,3.22-1.2,4.4.44,1.6,2.24,3.59,4.19,4.75,6.76a13.5,13.5,0,0,0,2.23,2.72,0.675,0.675,0,0,0-.14.02c0.05-.02.09-0.03,0.14-0.05,1.75,2.21,4.08,4.19,5.06,6.7,0.84,2.17,2.99,3.02,3.67,5.17,0.39,1.26,1.39,2.33,1.13,3.81-0.06.36,0.1,0.34,0.48,0.39,0.71,0.1,2.16-.35,1.52,1.36,1.51,0.43.89,2.24,1.93,2.98l-0.01-.01c0.16-.26-0.03-0.81.46-0.75a1.081,1.081,0,0,1,.68.63,10.751,10.751,0,0,0,1.66,3.25v-0.02c-0.2.24-.41,0.47-0.61,0.7l0.01-.02c-0.7,1.34.54,1.1,1.13,1.39l-0.01-.01c0.41-.62.75-0.39,1.12,0.07,0.57,0.69-.16.5-0.41,0.64a0.764,0.764,0,0,0-.37,1.11c0.45,0.66.53-.05,0.73-0.28,0.84,0.91,2.04,1.59,2.18,2.95,0.03,0.38-.04.64,0.36,0.74,0.34,0.09.41-1.12,0.88-.23,0.36,0.69-.76.63-0.77,1.26,1.53,0.03,1.34,1.56,1.87,2.38,4.52,6.86,9.75,13.2,14.6,19.82,2.01,2.75,1.33,5.56,1.15,8.41a2.909,2.909,0,0,0,.34,1.89c2.6,4.29,2.28,5.21-2.07,7.53q-15.135,8.085-30.22,16.29c-5.07,2.75-10.11,5.55-15.18,8.29-2.51,1.35-4.1.88-6.46-2.26-5.6-7.46-12.03-14.2-17.93-21.4-7.95-9.72-20.33-17.92-28.01-27.87-0.06-.08-0.13-0.15-0.19-0.23-1.13-1.57-16.27-9.13-14.6-10.08,4.2-2.4,15.67-17.18,19.88-19.57,0.7-.4,7.9,1.32,8.56.83m5.56,9.64-8.87,5.13-11.15-2.3-0.01.03c0.34-.42.67-0.84,1.01-1.25h-0.03c0.22,0.16-.11.86,0.49,0.6m49.07-14.05c-0.13-.05-0.25-0.1-0.38-0.16-1.07-1.74-2.02-.31-3.01.1v0.01a12.221,12.221,0,0,0-3.39,1.45c-1.46.85-2.58,2.25-4.3,2.68l-0.03-.07-0.06.05a1.44,1.44,0,0,0-.47,1.52c0.44-.09.89-0.18,1.33-0.28,1.42-.29,2.75-1.33,4.3-0.5-1.6.78-3.19,1.59-4.81,2.32-0.69.31-1.73-.12-2.03,0.99v-0.02c-0.24.36-.49,0.71-0.74,1.07a1.576,1.576,0,0,1-.24.15c-0.81-1.34-1.57-.25-2.34.05v-0.02c-0.15.83-.56,0.36-0.92,0.2h0.02a2.884,2.884,0,0,0-2.79,1.25c-0.52.67-1.48,2.3-3.13,1.25a0.877,0.877,0,0,0-1.06.73,5.314,5.314,0,0,1-2.76,3.5,38.38,38.38,0,0,0-6.12,3.31c-3.58,2.29-7.52,3.96-11.03,6.41-1.99,1.4-2.03,2.82-.7,4.51,1.34,1.73,2.79,3.36,4.19,5.04,7.57,9.06,15.02,18.21,22.74,27.14,5.13,5.94,10.39,11.78,15.22,17.98,1.56,2,3.22,2.22,5.32,1.08q12.075-6.57,24.18-13.12c7.29-3.95,14.61-7.86,21.91-11.79,2.35-1.27,2.71-2.59,1.35-4.86-1-1.67-2.05-3.3-3.02-4.99-1.84-3.21-3.63-6.44-5.45-9.66l0.01-.03c-0.47.35-.75-0.21-0.58-0.3,2.31-1.2.05-2.41-.14-3.39-0.75-3.74-3.68-6.35-5.75-9.34-5.55-8-11.66-15.6-17.32-23.53-3.21-4.49-7.12-6.87-12.72-5.86a2.108,2.108,0,0,0-2.04,1.93c-0.87-.66-0.54,1.11-1.19.62-0.88-.65-0.95.39-1.38,0.6a0.668,0.668,0,0,0,0,1.02c0.6,0.61.86-.16,1.28-0.27,1.12-.3,1.14-1.15,1.27-1.99a1.43,1.43,0,0,1,.51,1.43,1.492,1.492,0,0,0-.56,1.37l-0.02-.01c-0.05.12-.1,0.25-0.14,0.38l-1.53.24c-0.04.13-.08,0.26-0.13,0.39-0.07.06-.14,0.11-0.21,0.17-0.09.03-.19,0.06-0.28,0.09-0.23-.21-0.46-0.41-0.69-0.62C3132.88,2217.28,3132.83,2217.2,3132.77,2217.13Zm-24.25,9.42-1.31-.63a0.359,0.359,0,0,0-.02-0.11,0.147,0.147,0,0,0-.11.01,0.309,0.309,0,0,0,.02.11A0.147,0.147,0,0,0,3107.21,2225.92Zm-0.93-.64h-0.1a0.145,0.145,0,0,0,.01.1,0.17,0.17,0,0,0,.1,0A0.34,0.34,0,0,0,3106.28,2225.28Zm110.48-132.58c-2.64-.36-5-1.83-7.72-1.95-0.64-.03-0.85-0.11-0.88.62a1.881,1.881,0,0,1-3.61.49c-0.32-.83-1.11-0.58-1.6-0.42-0.7.22-.26,0.83-0.05,1.21,0.48,0.85.1,2.09,1.21,2.67a2,2,0,0,1-.08.77,1.686,1.686,0,0,1-.76-0.15c-0.51-.51-0.95-1.08-1.8-2.08,0.67,1.96-.22,2.63-1.21,3.51a15.112,15.112,0,0,1-3.51,2.31,0.871,0.871,0,0,1-.63-0.26c-3.98-3.41-5.53-3.56-9.79-.74a7.192,7.192,0,0,0-3.63,5.2c-0.13,1.16.03,2.72-1.08,3.1-1.05.35-1.26-1.31-1.9-2.02-1.45-1.65-2.8-1.52-4.2.82,1.11-.46,2.01-0.82,3.53-1.45-1.23,1.1-.97,1.67-0.21,2.06,1.37,0.71-.06,2.61,1.42,3.25-0.52.3-1.04,0.91-1.65,0.28a3.364,3.364,0,0,0-1.25-.92,12.806,12.806,0,0,0-8.74.32c-1.5.51-3.07,0.96-4.2,2.38,0.54-.91-0.18-1.21-0.49-1.64-1.27,1.09-2.52,2.2-2.55,4.08-0.98-.33-0.19-1.05-0.48-1.53-1.5.97-3.26,1.1-4.87,1.67v-0.01c-1.6-.36-3.2-0.85-4.24,1.1-0.37.7-3.73,0.32-4.28-.2-0.76-.72-0.94.96-1.73,0.63,0.04-.07.08-0.15,0.12-0.23a2.175,2.175,0,0,1-.26-0.01c-0.03-.2-0.06-0.4-0.09-0.61a1.134,1.134,0,0,0-.37.49c0.02,0.43.29,0.15,0.47,0.1l0.15,0.27c-0.68,1.77-2.48-.09-3.57,1.12a4.159,4.159,0,0,0-1.16,2.06c-0.26-.74-0.39-1.11-0.45-1.27-10.07,5.31-20.95,9.39-29.48,17.28,0.16-1.37.33-3.08,0.58-4.78,0.06-.44.35-0.82-0.41-0.56,2.49-3.19,6.22-4.76,9.37-7.08a21.93,21.93,0,0,1,4.8-2.71q-4.215,2.94-8.45,5.86c-0.81.56-1.98,1.16-1.3,2.2a2.1,2.1,0,0,0,2.78.24c4.35-2.77,8.9-5.21,13.11-8.23,3.42-2.45,7.27-4.29,10.9-6.43,4.61-2.72,9.18-5.52,13.82-8.19,3.46-2,7.03-3.84,10.51-5.8,2.55-1.43,4.92-3.25,7.59-4.36,3.9-1.62,7.39-3.93,11.14-5.79a67.268,67.268,0,0,0,6.91-3.94c3.04-1.98,6.5-3.21,9.47-5.18a56.125,56.125,0,0,1,7.92-4.61,52.007,52.007,0,0,0,6.08-3.45c2.56-1.62,5.26-3.04,7.87-4.54,2.85-1.64,5.81-3.23,8.79-4.7,2.57-1.28,5.54-2.53,7.24-5.24a1.656,1.656,0,0,1,1.12-.83c0.81-.18.67-1.02,0.91-1.54,0.22-.46-0.47-0.2-0.73-0.33-0.73-.37-0.57-0.69-0.01-1a6.5,6.5,0,0,1,3.32-.93c-0.36.22-.73,0.43-1.28,0.75,1.81,0.15,3.09,1.11,4.7,2.02-2.28.59-4.74,0.67-5.81,2.84-0.81,1.62-1.7,3.35-1.14,5.4,0.25,0.91-1.06.91-1.51,1.59a20.729,20.729,0,0,1-3.05,3.31,14.484,14.484,0,0,1-1.37.54,12.237,12.237,0,0,1-4.97,2.5c0.28,0.51,1.81.95,0.04,1.19a17.058,17.058,0,0,1-1.92.01c1.3,1.23.8,1.49-.47,2.04-1.16.5-1.86,2.3-3,2.58-1.76.43-1.68,2.23-2.77,2.81s-0.23-.77-0.6-1.06c0.13-.18.26-0.37,0.38-0.55l0.66-.09c-0.06-.1-0.12-0.19-0.18-0.29-0.15.13-.31,0.26-0.46,0.39-0.13.18-.26,0.36-0.38,0.54-0.35.57-.93,1.01-0.73,1.82,0.13,0.5-.16.67-0.68,0.6-0.32-.04-0.35-0.82-0.73-0.33a2,2,0,0,0,.23,1.04v-0.01c-1.06.93-.89-0.65-1.52-0.76-2.11-.35-2.12,1.74-3.3,2.45,1.32,0.24,2.08-1.49,3.42-.59a0.9,0.9,0,0,1,.03.82c-0.35.58-.53-0.46-0.96-0.09,0.09,0.56,1.02,1.1.37,1.72-0.83.78-.77-0.47-1.2-0.64a0.185,0.185,0,0,0-.14-0.02c-3.39,2.25-7.93.33-11.17,3.09a1.879,1.879,0,0,0-.58.74c2.06-.93,4.17-1.56,6.33-0.66,2.02,0.84,3.97,1.86,5.92,2.87a2.223,2.223,0,0,1,.13,1.07v-0.02Zm-21.44,1.36c0.05,0.09.11,0.19,0.16,0.28,2.49-1.24,4.98-2.47,7.45-3.74a1.968,1.968,0,0,0,.45-0.69,1.28,1.28,0,0,0-.6-0.14C3200.28,2091.18,3197.8,2092.62,3195.32,2094.06Zm-90.25,86.78c0.6-.18.9-0.11,0.71,0.65-0.11.42-.21,1.01,0.59,0.96h-0.03c0.32,0.38.76-.8,0.74-0.1-0.03.94,0.13,0.9,0.89,0.73,0.95-.21,1.12.73,1.53,1.28-0.79-.04-1.66-0.41-2.23.49a0.645,0.645,0,0,0,.27.38c0.72-.13,1.71.31,1.93-0.88,0.84,0.14.93,1.57,2.06,1.2-0.74.43-.57,0.83,0.15,1.78-0.09-.98-0.13-1.39-0.17-1.79,0.35-.39,2.74,1.86,1.23-0.95a0.658,0.658,0,0,1,.24-0.42,1.565,1.565,0,0,1,.34-0.23c0.29,0.56.98,1.37,0.81,1.62-0.77,1.16-.26,1.87.56,2.6,0.77-.53-0.77-1.65.52-2.04,0.18,0.31.36,0.62,0.59,1.02,0.32-.82-0.02-1.01-0.58-1.04,0.17-.53.58-0.99,1.05-0.59a2.826,2.826,0,0,1,1.14,1.77c0,0.91-.33,1.41,1,1.74,0.5,0.12.65,2.17,0.74,3.35,0.55,6.65-2.92,11.22-7.94,14.86-4.77,3.45-10.25,4-15.91,3.46-1.33-.13-2.19-0.73-1.34-2.35,0.93-1.74,1.7-3.57,2.53-5.36a2.4,2.4,0,0,0-.38-2.32c-1.59-2.79-1.03-7.81,1.11-9.94a2.276,2.276,0,0,1,1-.59,8.275,8.275,0,0,0-1.57,5.76,3.928,3.928,0,0,0,.16.83,2.812,2.812,0,0,0,.89-0.28,8.288,8.288,0,0,0,3.31-5.5c0.49-2.59,2.07-4.97,3.14-7.46,0.37-.86.62-1.77,0.93-2.66Zm-7.75,19.59c-0.37-1.27-.18-1.63.94-1.26,2.79,0.92,5.35-.84,8.09-0.87a2.043,2.043,0,0,0,1.42-2.14c-0.16-2.29-1.33-3.91-3.68-5.44a12.944,12.944,0,0,0,.91,1.55c1.2,1.4,1.31,2.11-.93,2.33a11.164,11.164,0,0,0-7.1,3.01C3096.14,2198.45,3095.95,2199.34,3097.32,2200.43Zm-6.04-127.05c-0.3,1.01-1.18.38-1.54,0.32-2.24-.35-2.67.09-2.26,2.68-0.78.03-.86-0.79-1.27-1.06-4.73,4.26-1.28,9.14-.94,13.71,0.23,3.2,1.28,6.33,1.4,9.64-0.8-2.64-1.66-5.28-2.38-7.95a79.085,79.085,0,0,1-2.75-16.46,21.845,21.845,0,0,1,1.81-9.22,1.168,1.168,0,0,1,.9-0.78c1.24-.33,2.68-0.24,3.29-1.93,0.45-1.23.56,0.76,1.4,0.36,1-.47,1.81-1.2,2.78-1.68,0.38-.19.69-0.47,0.95,0.06,0.24,0.49-.1.66-0.5,0.85a2.914,2.914,0,0,0-1.83,1.68c2.33-.91,4.17-2.01,4.23-4.86,0.39,0.54.71,0.99,1.17,1.64-0.81-2.8.02-3.97,2.16-3.05a17.558,17.558,0,0,1,2.26,1.73c-0.83.97-1.07,2.37-2.25,3.08-0.66.4-1.35,0.75-2.02,1.13h0.01c-0.8-.61-1.63-1.03-2.58-0.26,0.67,0.35,1.71.33,1.8,1.34a6.807,6.807,0,0,1-.33,1.85c-0.29-.18-0.58-0.36-0.88-0.55-0.41.46,0.07,1.51-.69,1.55-0.87.06-.82-1.15-1.57-1.77,0.14,1.07.25,1.93,0.36,2.8l0.01-.02c-1.76.4-.58,1.57-0.63,2.41h-0.03c0.04,0.13.08,0.27,0.12,0.41-1.2-.5-1.3.55-1.67,1.21a0.728,0.728,0,0,0-.14.49,0.775,0.775,0,0,0,.51.36,0.745,0.745,0,0,1,1.1.27v0.02Zm-7.45,4.27a1.413,1.413,0,0,0,.22-0.06,0.139,0.139,0,0,0,0-.11c-0.06-.03-0.13-0.04-0.2-0.07C3083.84,2077.49,3083.84,2077.56,3083.83,2077.65Zm79.84-98.15c2.13,1.65,1.18,4.09.85,5.88a20.333,20.333,0,0,1-3.3,8.53,42.2,42.2,0,0,0-4.73,7.6,30.119,30.119,0,0,1-6.96,9.29c-2.05,1.91-5.58.78-6.46,3.98a1.214,1.214,0,0,1-.53-0.12,0.646,0.646,0,0,1-.23-0.51c1.87-2.29-2.05-3.95,1.1-5.53a4.013,4.013,0,0,0,.93-1.57l-2.36-.24,0.04,0.02c-1.16-1.64,2.96-6.6,3.67-7.2,0.92-.77,1.17.91,1.62,1.59a0.863,0.863,0,0,0,1.28.25,0.993,0.993,0,0,0,.65-1.2c-0.22-1.18-1.19-.7-1.89-0.82h-0.01c-0.34-3.45,3.32-4.17,7.66-3.86,1.23,0.08.99-.53,1.03-0.89a18.041,18.041,0,0,1,5.87-11.2c1.23-1.17,1.04-2.74,1.8-3.99Zm48.62,16.06c2.26-.3,4.7,1.47,6.15,2.43,3.19,2.12,6.45,4.18,9.42,6.6a65.351,65.351,0,0,1,8.57,8.79c0.59,0.7-.76,3.19-1.32,3.81-0.75.82-1.32,0.03-1.72-.34-5.07-4.62-9.8-9.88-14.87-14.5C3216.62,2000.62,3212.32,1998.08,3212.29,1995.56Zm-64.43,318.77a10.023,10.023,0,0,1,5.06-1.11,1.608,1.608,0,0,1,1.7,1.12c0.24,0.72.62,1.44-.26,2.08a0.786,0.786,0,0,0-.12,1.26c0.59,0.63.81-.12,1.13-0.34a11.3,11.3,0,0,1,1.68-1.3c0.59-.27,1.35-0.65,1.91.25,0.59,0.93-.3.8-0.63,1.21-1.49,1.91-3.67,2.34-5.74,3.09a0.384,0.384,0,0,1-.57-0.34c-0.11-1.97-1.6-1.29-2.57-1.24-1.48.08-3.34,0.83-3.96-.95C3144.89,2316.31,3146.49,2315.22,3147.86,2314.33Zm113.71-309.89a50.508,50.508,0,0,1,16.54-1.86,104.837,104.837,0,0,1,16.19,1.88,5.921,5.921,0,0,1,2.67,1.09c-8.99-2.26-18.08-1.59-27.21-1.13a51.475,51.475,0,0,0-18.19,4.31,7.777,7.777,0,0,1-3.81.66l0.41-.35C3252.43,2006.91,3257.18,2006.19,3261.57,2004.44Zm-192.35,97.85a44.862,44.862,0,0,1,4.22-7.21c0.42-.55,1.16-0.92.97-1.8l0.02-.09c0.17-.08.33-0.16,0.5-0.25,0.34,0.03.67,0.05,1.18,0.09a3.035,3.035,0,0,0-.74,2.86c0.15,0.42.02,1.17-.38,1.1-2.83-.46-1.49,2.35-2.6,3.22-1.31,1.02-.37,3.67-2.79,3.92-1.49-.28-0.29-1.18-0.4-1.78Zm130.71-143.65a2.44,2.44,0,0,1,.92,2.84c1.13-.2.89-2.15,2.2-1.53,0.47,0.22-.42.47-0.43,0.85l-0.03.07c0.22,1.52,1.53,2.81.94,4.51a3.893,3.893,0,0,0-.09.61c-0.19-.2-0.38-0.4-0.56-0.6-0.34-.19-0.51-0.1-0.51.3,0.65,0.91.07,1.7-.24,2.52-0.82.47-.75-0.12-0.75-0.63,0.04-1.71.33-3.53-1.84-4.31a4.258,4.258,0,0,0,.31-2.54h0c0.23-.14.42-0.3,0.09-0.51a0.956,0.956,0,0,0-.56-0.1c-1.06.09-.49-0.99-0.95-1.34a0.622,0.622,0,0,1,.15-0.44c0.56-.11.62,0.43,0.91,0.7C3200,1959.51,3199.73,1958.73,3199.93,1958.64Zm-74.96,15.75a4.4,4.4,0,0,1,1.99.07,1.994,1.994,0,0,1,.96,2.37c-1.83,4.15-2.65,9.06-8.09,10.5-1.55.42-1.47-.92-1.44-0.99C3120.52,1982.36,3122.72,1978.43,3124.97,1974.39Zm-47.15,221.77c-0.32-.98-0.87-2.09.07-3.02,0.44-.44.93,0.28,1.08,0.62a2.587,2.587,0,0,1-.15,2.97C3078.39,2197.19,3078.12,2196.53,3077.82,2196.16Zm64.16-189.35c-0.03.56,1.61,1.04,0.37,1.48-1.93.68,0.93,1.88-1.81,0.76-0.59-.24-0.2-1.28-0.05-1.28,2.29,0.04-.82-1.16,1.53-0.94Zm-93.69,137.6a14.181,14.181,0,0,1,3.05-5.82A18.962,18.962,0,0,1,3048.29,2144.41Zm86.09,47.48a1.822,1.822,0,0,1-2.34-.37c-0.38-.63,1.01-0.36,1.24-0.99h-0.01c0.97-.03.82,0.85,1.13,1.37Zm-2.97,2.41a0.912,0.912,0,0,1-1.04-.94,1.347,1.347,0,0,1,.45-1c0.8-.46.09,1.09,0.91,0.75l-0.02-.01c0.6,0.59-.46.75-0.31,1.22Zm-49.18,37.53,0.01-.03m81.46-252.29c0.3-.62.43-1.41,1.29-1.52a0.831,0.831,0,0,1,.52.56c-0.26.93-1.03,1.01-1.84,0.95Zm-8.5-38.57c0.31,0.09.61,0.17,0.92,0.26a0.628,0.628,0,0,1-.25.26c-0.36.03-.88,0.2-0.65-0.52h-0.02Zm-63.19,127.29c0.76,0.08.86,0.53,0.69,1.51-0.32-.72-0.5-1.12-0.68-1.53Zm112.58-91.7c-0.1.26-.19,0.58-0.56,0.35a1.107,1.107,0,0,1-.21-0.45c0.22-.04.43-0.08,0.64-0.12l-0.03-.01c0.06,0.09.11,0.18,0.16,0.26v-0.03Zm-12.77-27.37c-0.24-.04-0.48-0.08-0.73-0.12a0.458,0.458,0,0,1,.13-0.22,0.418,0.418,0,0,1,.59.37Zm11.28,26.55a1.791,1.791,0,0,1,.35-0.39,0.672,0.672,0,0,1,.3.08,1.339,1.339,0,0,1-.24.32A0.942,0.942,0,0,1,3203.1,1975.71Zm-55.75,23.74c0.16,0.34.32,0.68,0.49,1.02-0.07.01-.18,0.04-0.19,0.04-0.11-.35-0.21-0.71-0.31-1.06h0.01Zm-96.12,138.9,0.84-.84a1.111,1.111,0,0,1-.73,1.09A0.341,0.341,0,0,1,3051.23,2138.35Zm140.46-193.85c-0.09-.07-0.18-0.14-0.26-0.21l0.07-.07a3.207,3.207,0,0,1,.19.31v-0.03Zm32.64,54.06h-0.21a0.122,0.122,0,0,1,.09-0.04,0.308,0.308,0,0,1,.12.05v-0.01Zm-11.66-16.21a0.573,0.573,0,0,0-.04.14,0.784,0.784,0,0,0,.05-0.14h-0.01Zm-8.21-6.04-0.03-.01Zm-1.33-4.66-0.01.03Zm-10.85-26.12h0Zm-0.59-1v0Zm20.69,37.31-0.01.02Zm-23.67,123.02c-0.37.31-.88,0.01-1.52-0.85a0.646,0.646,0,0,0-.45-0.14c-0.4.76-1.92-.39-1.87,1.11,0.02,0.81-.13,2.08-0.82,2.01-1.04-.11-0.91-1.25-0.87-2.25,0.15-4.01,5.32-7.79,9.21-6.61a2.34,2.34,0,0,1,1.56,1.91,2.476,2.476,0,0,1-1.2,2.53c-1.24,1.04-2.78,1.4-4.06,2.28Zm-8.65,5.94c1,2.25-1.12,2.42-1.88,3.39a4.089,4.089,0,0,1-1.56,1.28c-0.77-.58.14-1.14,0.27-1.74,0.05-.28.02-0.47-0.35-0.44-2.02.18-3.9-.53-5.82-0.92-1.31-.26-2.45.78-3.76,0.35-0.29-.09-0.74.13-0.8-0.34a0.945,0.945,0,0,1,.3-0.73c1.34-1.17,2.87-1.93,4.66-1.4a32.271,32.271,0,0,1,4.66,1.75C3177.54,2112.82,3178.84,2112.22,3180.06,2110.8Zm33.36-9.43a2.6,2.6,0,0,1,.48-0.82c2.58-1.77,2.22-4.94,3.51-7.33,0.44-.8.57-2.5,1.45-2.13,0.97,0.4.07,1.75-.29,2.66a24.568,24.568,0,0,0-1.96,5.89c-0.16,1.31-1.69,1.25-2.57,1.85A1.38,1.38,0,0,1,3213.42,2101.37Zm-59.59,18.58c2.09-1.46,4.19-1.06,6.3-.05,0.32,0.16.67,0.34,0.47,0.74a0.9,0.9,0,0,1-.73.17c-3.05-.6-5.87-0.36-8.09,2.16a1.034,1.034,0,0,1-.5.1,2.469,2.469,0,0,1,.02-0.67A4.449,4.449,0,0,1,3153.83,2119.95Zm21.98-.68c2.81,0.22,5.26-.19,7.33-2.01a5.361,5.361,0,0,1,.83-0.58c0.54-.3,1.24-0.8,1.67-0.13s-0.43,1.01-.86,1.25a41.4,41.4,0,0,1-5.14,2.62C3178.27,2120.97,3176.79,2120.98,3175.81,2119.27Zm-18.14,13.66a8.341,8.341,0,0,0,4.68-3.05c1.59-.81,2.18-2.34,2.79-4.01,0.48,2.6-2.32,6.24-5.75,7.67a4.328,4.328,0,0,1-1.24.42c-0.64.05-1.58,0.9-1.89-.09C3155.94,2132.85,3157.3,2133.44,3157.67,2132.93Zm45.97-27.29,4.53-2.61c0.53-.3,1.19-0.58,1.53.07,0.42,0.8-.46.93-0.91,1.18-1.52.85-3.06,1.66-4.62,2.45-0.51.25-1.17,0.96-1.63,0.16C3202.03,2106.01,3203.03,2105.83,3203.64,2105.64Zm-1.22-6.65c1.1-.19,1.92-1.86,3.17-0.34,0.4,0.49.29,1.02-.11,0.95-1.72-.31-2.65,1.27-4.11,1.54-0.41.07-.84,0.74-1.19-0.01-0.3-.64.2-0.97,0.68-1.24C3201.4,2099.57,3201.95,2099.26,3202.42,2098.99Zm-30.94,26.93c-0.42.09-.87,0.78-1.23,0.09-0.34-.68.32-1.04,0.77-1.37a0.83,0.83,0,0,1,1.28.02C3172.72,2125.42,3171.84,2125.54,3171.48,2125.92Zm27.7-16.54c-0.47.13-.93,0.82-1.39,0.15a0.76,0.76,0,0,1,.44-1.18c0.56-.21,1.26-0.75,1.72-0.08C3200.42,2108.97,3199.5,2109.04,3199.18,2109.38Zm-9.47,5.43c-0.48.08-.93,0.72-1.3,0.12a0.89,0.89,0,0,1,.52-1.29c0.48-.25,1.05-0.46,1.38.13C3190.69,2114.41,3189.91,2114.48,3189.71,2114.81Zm33.38-17.93c-0.55.1-1.01,0.83-1.47,0.2-0.42-.58.2-0.86,0.62-1.05,0.45-.19.98-0.77,1.42-0.17C3224.14,2096.52,3223.28,2096.56,3223.09,2096.88Zm55.26,162.07c-0.34.38-.67,0.76-1.04,1.17-0.45-.62-0.08-1.27-0.07-1.91C3277.61,2258.46,3277.98,2258.7,3278.35,2258.95Zm-74.22-164.25c0.06-.16.12-0.3,0.18-0.44a1.053,1.053,0,0,1,.43.29,0.919,0.919,0,0,1-.04.48C3204.54,2094.93,3204.38,2094.84,3204.13,2094.7Zm231.45-136.48c-0.17.27-.33,0.53-0.5,0.8a0.9,0.9,0,0,1-.25-0.4c0.05-.47.27-0.71,0.75-0.37v-0.03Zm-2.3,3.04c-0.27.01-.57,0.06-0.59-0.34a0.418,0.418,0,0,1,.15-0.19c0.14,0.18.28,0.37,0.43,0.55Zm-14.84,16.35-0.03-.01Zm-20.37,22.54-0.01.02Zm-472.72,249.04c-0.22-.24-0.35-0.51-0.05-0.75a0.829,0.829,0,0,1,.46.07c-0.14.22-.29,0.45-0.43,0.67Zm-4.18.38c-0.1-.13-0.2-0.26-0.29-0.39,0.03-.02.07-0.04,0.1-0.06,0.06,0.15.12,0.31,0.18,0.47Zm69.57-13.85a2.759,2.759,0,0,0,.08-0.27,2,2,0,0,1-.1.26Zm-31.49,7.38,0.05,0.01-0.04-.03Zm80.44-22.49h0Zm187.21-231.3v0Zm-22.27-83.65,2.62,13.33c0.41,0.1.81,0.2,1.22,0.31-0.47.13-1.2,1.15-1.19-.31h-0.03Zm-16.99-6.03c-0.31-.28-0.61-0.56-0.91-0.84,0.62-.02,1.32-0.09.88,0.84h0.03Zm13.46-5.98a0.957,0.957,0,0,1,.08-0.22,0.4,0.4,0,0,1,.25.09,0.488,0.488,0,0,1-.05.24C3203.91,1907.05,3203.83,1907.02,3203.72,1906.98Zm3.56,12.01c-0.11-.17-0.22-0.35-0.34-0.52,0.12-.04.24-0.09,0.36-0.13-0.01.22-.03,0.43-0.05,0.65h0.03Zm-2.67-15.67,0.48,0.15c-0.02.04-.03,0.08-0.05,0.12-0.14-.1-0.28-0.2-0.43-0.3v0.03Zm3.26,18.03c0.1-.02.19-0.03,0.28-0.04a2.437,2.437,0,0,1-.27.01Zm-11.65-4.41c0.05-.01.09-0.03,0.13-0.04a0.5,0.5,0,0,0-.12.02Zm-5.84-3.72v0Zm84.1,348.98c0.5-.44-0.18-1.16.5-1.68,1.53-1.18,1.3.07,1.41,0.92h0c0.04,0.32.08,0.64,0.13,0.96a2.293,2.293,0,0,1-.97-0.12c-0.38-.25-0.68-0.48-1.08-0.08h0.01Zm-167.57-65.18c-0.36.39-.71,0.77-1.26,1.36A1.106,1.106,0,0,1,3106.91,2197.02Z"/>
  <path class="cls-1" d="M3079.85,1487.73c16.62,0.42,19.62,5.57,21.75,11.49,2.74,8.2,7.72,10.65,12.45-6.04a12.353,12.353,0,0,0,.59-2.86l14.58,3.93h0l0.56-.96a16.885,16.885,0,0,0,21.69-6.89,18.534,18.534,0,0,0,1.77-4.54l17.8,6.87,2.66-.17,1.55-2.31,2.56,1.48,2.71-1,0.86,2.2,2.86,0.59-0.59,2.86,1.62,2.01,13.66,5.53,1.55-2.3-30.49-25.93-18.74-6.34-1.11,1.92a12.2,12.2,0,0,0-4.5-3.67,16.891,16.891,0,0,0-22.98,6.16,18.736,18.736,0,0,0-2.33,8.48l-8.52-1.51a13.342,13.342,0,0,0-7.36-4.25c-17.95-4.39-46.16,3.44-76.95-32.68-4.72-5.51-13.78-4.97-17.47,1.43a10.948,10.948,0,0,0,.77,11.97C3019.73,1464.34,3042.56,1486.91,3079.85,1487.73Zm52.41-1.33a9.977,9.977,0,1,1,13.64-3.65A9.937,9.937,0,0,1,3132.26,1486.4Zm10.96-5.11a6.794,6.794,0,1,1-2.48-9.28A6.789,6.789,0,0,1,3143.22,1481.29Zm0.12-22.21-6.64-6.61a23.708,23.708,0,0,0,2.19-1.94c12.09-12.44,7.47-15.53-.99-13.81-6.2,1.12-12.41,1.16-20.83-13.09-19.36-31.88-50.57-40.29-64.43-42.53a10.48,10.48,0,0,0-10.75,5.32,10.684,10.684,0,0,0,7.49,15.85c46.43,8.66,54,36.94,66.78,50.29a13.239,13.239,0,0,0,7.36,4.25l3.56,4.19A19.89,19.89,0,0,1,3143.34,1459.08Zm-8.86,38.64,13.45,11.82,37.95,13.37,1.29-2.24-11.63-9.06-2.54-.4-2.19,1.93-1.93-2.18-2.92.24-0.49-2.85-2.56-1.48,1.73-2.62-1.18-2.39-12.33-9.69A20.611,20.611,0,0,1,3134.48,1497.72Z"/>
  <path class="cls-1" d="M2609.74,1249.87v-19.04l-14.02-3.44v-15.91l14.02-3.44,0.03-307.024-14.02-3.428V881.671l14.02-3.441V859.2a6.617,6.617,0,0,1,6.6-6.64l196.77-.017a6.615,6.615,0,0,1,6.6,6.639l-0.04,390.672a6.613,6.613,0,0,1-6.6,6.63l-196.77.02A6.6,6.6,0,0,1,2609.74,1249.87Zm28.01-358.329-0.03,264.979a6,6,0,0,0,6,6h3l0.02-276.979h-2.99A6,6,0,0,0,2637.75,891.541Zm154.94,264.969,0.03-264.983a6,6,0,0,0-6-6l-135.98.012-0.02,276.98,135.97-.01A6,6,0,0,0,2792.69,1156.51Z"/>
  <path class="cls-1" d="M2033.19,808.766c-6.58,6.613-11.88,13.459-15.17,19.889l27.28,47.273c16.3,0.8,39.53-6.147,59.14-17.47,18.25-10.54,32.3-24.273,40.17-37.847q39.39-28.1,78.78-56.2l-19.76-34.223q-43.965,20.044-87.97,40.1c-14.23.01-31.12,4.375-47.77,13.049l-4.14-3.622-2.95,3.373-1.03,1.188-1.19-1.043-5.73-5.036-1.19-1.042,1.04-1.185,2.93-3.361-5.91-5.183-2.81,3.212-1.03,1.182-1.19-1.035-5.74-5.015-1.19-1.039,1.04-1.19,2.81-3.219-35.37-30.971-22.53,25.824,44.52,38.993c0.1,0.1.18,0.193,0.27,0.3C2034.39,800.693,2034.37,805.613,2033.19,808.766ZM1976.3,734.9l8.48-9.718,11.09,9.7-8.49,9.723Zm-13.98-17.185,13.17,11.533,3.41-3.913-11.83-10.363Zm79.46,46.214,5.72-6.556,4.13,3.616-5.72,6.547Zm14.05,12.4,5.72-6.559,4.13,3.618-5.72,6.547Z"/>
  <g id="corners_copy_7" data-name="corners copy 7">
    <rect class="cls-2" x="3999" width="1" height="1"/>
    <rect id="Rectangle_3_copy" data-name="Rectangle 3 copy" class="cls-2" width="1" height="1"/>
    <rect id="Rectangle_3_copy_2" data-name="Rectangle 3 copy 2" class="cls-2" x="3999" y="3999" width="1" height="1"/>
    <rect id="Rectangle_3_copy_2-2" data-name="Rectangle 3 copy 2" class="cls-2" y="3999" width="1" height="1"/>
  </g>
</svg>
